<?xml version="1.0" encoding="utf-8"?>
<!-- Generator: Adobe Illustrator 25.2.1, SVG Export Plug-In . SVG Version: 6.00 Build 0)  -->
<svg version="1.1" id="Capa_1" xmlns="http://www.w3.org/2000/svg" xmlns:xlink="http://www.w3.org/1999/xlink" x="0px" y="0px"
	 viewBox="0 0 1131 142" style="enable-background:new 0 0 1131 142;" xml:space="preserve">
<style type="text/css">
	.st0{fill:#FFFFFF;}
</style>
<g>
	<g>
		<path class="st0" d="M226.1,76.2c0,9.2,0,18.5,0,27.7c0,1.6-0.1,3.3-0.6,4.9c-0.6,2.1-2.1,3.6-4.5,3.6c-2.3,0-3.9-1.4-4.7-3.5
			c-0.5-1.4-0.7-2.9-0.7-4.4c-0.2-9.7-0.3-19.5-0.5-29.2c0-2-0.2-4-0.5-6c-0.1-0.7-0.7-1.7-1-1.7c-0.7,0-1.6,0.5-2,1
			c-1,1.3-1.8,2.8-2.7,4.2c-0.8,1.3-1.4,2.6-2.3,3.9c-3.4,5.1-8.2,5.1-11.6-0.2c-1.6-2.5-3-5-4.5-7.5c-0.7-1.1-1.3-2.1-2.2-3
			c-1.7-1.9-2.8-1.6-3.4,0.8c-0.4,1.8-0.6,3.6-0.6,5.4c0.1,11.2,0.4,22.5,0.5,33.7c0,1.6-0.3,3.3-0.8,4.9c-0.7,2-2.3,3.2-4.6,3.3
			c-2.2,0.1-3.7-1.1-4.5-3c-0.6-1.4-1-3-1-4.6c-0.1-17.7-0.1-35.3,0-53c0-3.6,0.5-7.3,0.9-10.9c0.3-2.6,1.6-4.6,4.3-5.3
			c2.6-0.7,4.6,0.6,6,2.6c3.6,5.5,7,11.1,10.5,16.7c0.8,1.3,1.5,2.6,2.5,3.8c1.5,1.8,3.2,1.8,4.5-0.2c1.4-2.2,2.5-4.5,3.8-6.7
			c2.3-3.8,4.5-7.6,6.9-11.3c1.7-2.6,4-4,7.2-3.3c2.5,0.6,4.2,3.2,4.4,6.6c0.2,3,0.2,6,0.2,9c0,7.2,0,14.5,0,21.7
			C225.5,76.2,225.8,76.2,226.1,76.2z"/>
		<path class="st0" d="M355.6,57.7c-0.2-5.2-0.5-10.3-0.6-15.5c0-1.3,0.1-2.7,0.7-3.9c0.9-2,2.6-3,4.9-2.6c2.4,0.4,4.2,2.3,4.5,5.1
			c0.5,5,1.4,10.1,1.2,15.2c-0.5,16.8-1.3,33.6-2.2,50.4c-0.2,3.7-2,5.8-4.6,6.3c-2.5,0.5-5.1-0.7-6.7-3.7c-3-5.6-5.8-11.4-8.6-17.2
			c-0.7-1.4-1.4-2.8-2.3-4.1c-0.3-0.5-1-0.8-1.5-1.1c-0.4,0.6-1.1,1.1-1.1,1.7c-0.2,4.5-0.3,9-0.3,13.5c0,1.9,0.3,3.8,0.2,5.7
			c-0.1,3.2-2.2,5.6-4.8,5.7c-2.8,0.2-5-1.8-5.4-5.1c-0.4-3-0.4-6-0.5-9c-0.6-16.5-1.1-33-1.6-49.4c-0.1-2,0.1-4,0.5-5.9
			c0.6-2.7,2.6-4.5,4.9-4.7c2.1-0.2,4.5,1.4,5.4,4.1c1.7,4.7,3.1,9.5,4.8,14.2c2.7,7.2,5.5,14.3,8.4,21.4c0.5,1.3,1.8,2.2,2.7,3.3
			c0.6-1.4,1.7-2.7,1.7-4.1c0.2-6.7,0.1-13.5,0.1-20.2C355.2,57.7,355.4,57.7,355.6,57.7z"/>
		<path class="st0" d="M764.7,73.9c-0.9,12.4-1.5,22.5-2.3,32.5c-0.3,3.8-2,5.8-4.7,6.3c-3.2,0.5-5.3-1.2-6.7-3.8
			c-2.9-5.4-5.5-11-8.3-16.5c-0.9-1.7-1.7-3.4-2.8-5c-0.9-1.4-2-1.2-2.4,0.5c-0.3,1.2-0.4,2.5-0.4,3.7c0,4.7,0.2,9.3,0.2,14
			c0,1.2,0.1,2.4-0.2,3.5c-0.6,2.2-1.9,3.9-4.4,4.1c-2.5,0.2-4.3-1-5-3.3c-0.6-1.8-0.8-3.7-0.9-5.6c-0.4-12.6-0.8-25.1-1.2-37.7
			c-0.2-5.8-0.5-11.6-0.6-17.5c0-1.8,0.2-3.7,0.6-5.4c0.5-2.5,2.1-4.1,4.7-4.6c2-0.3,4.4,1.2,5.4,3.7c1,2.3,1.6,4.7,2.5,7.1
			c3.6,9.6,7.1,19.2,10.8,28.7c0.5,1.3,1.9,2.3,2.9,3.5c0.6-1.4,1.6-2.8,1.7-4.2c0.1-10.7,0.1-21.5,0-32.2c0-1.3-0.2-2.7-0.2-4
			c0-3.3,1.8-5.7,4.5-6c2.7-0.3,5.3,1.9,5.7,5.2c0.6,5.4,1.1,10.8,1.3,16.2C764.9,63.4,764.7,69.8,764.7,73.9z"/>
		<path class="st0" d="M235.6,73c0.4-7.6,0.9-17.8,1.5-28c0.1-1.7,0.5-3.5,0.9-5.2c0.7-3.1,2.8-4.8,5.9-5.3c9.1-1.6,18.1,4,21.1,13
			c2.2,6.6,1.6,13-1.6,19.1c-0.4,0.8-0.8,1.7-1.3,2.4c-2.2,3.1-1.9,5.9,0.3,8.9c5.1,6.9,5.4,14.3,2,22c-3.7,8.2-14.4,14.1-23.3,12.9
			c-3.3-0.4-5.4-2.8-5.4-6.7C235.5,96,235.6,85.9,235.6,73z M245.8,90.9c0.2,2.2,0.4,4.6,0.8,6.8c0.3,1.7,1.5,2.5,3.3,2
			c2.9-0.9,5.4-4.3,5.7-8.1c0.3-4-1.5-8.1-4.4-9.4c-2.3-1.1-4.2-0.3-4.7,2.2C246.1,86.5,246.1,88.7,245.8,90.9z M246.9,58.3
			c0,0,0.1,0,0.1,0c0,1.7-0.2,3.3,0,5c0.3,2.5,2.1,3.2,4.1,1.7c4.5-3.2,5.7-12.4,2.1-16.5c-0.8-0.9-2.4-1.6-3.6-1.5
			c-0.8,0.1-1.7,1.7-1.9,2.8C247.2,52.7,247.1,55.5,246.9,58.3z"/>
		<path class="st0" d="M849.8,75.6c0-9.3-0.1-18.6,0-28c0.1-9.3,6.7-14.2,15.9-11.8c8.9,2.4,14.7,9.6,15.9,19.4
			c1,8.5-1.2,15.6-8.1,21c-3.2,2.5-3.4,3.8-1.4,7.5c3.7,7,7.6,13.9,11.2,20.9c0.8,1.5,1.2,3.3,1.1,5c-0.1,2.1-1.5,3.7-3.7,4.3
			c-2,0.6-3.9,0-5.2-1.6c-1.2-1.6-2.1-3.4-3-5.1c-2.2-4-4.2-8.1-6.5-12c-0.5-0.9-1.8-1.3-2.7-1.9c-0.5,0.9-1.5,1.9-1.6,2.8
			c-0.3,2.6-0.1,5.1-0.3,7.7c-0.1,1.9-0.1,3.8-0.5,5.7c-0.5,2.1-2,3.4-4.3,3.6c-2.2,0.2-3.9-0.8-4.6-2.7c-0.7-1.8-1.1-3.8-1.1-5.8
			c-0.1-9.7-0.1-19.3-0.1-29C850.5,75.6,850.1,75.6,849.8,75.6z M860.4,57.4c0,0,0.1,0,0.1,0c0,2.2-0.2,4.5,0,6.7
			c0.4,4.1,3.1,5.3,6.6,3c3.2-2.1,4.2-5.2,3.9-8.9c-0.3-3.8-1-7.5-4.2-10c-3.1-2.4-6-1.1-6.4,2.7C860.3,53,860.4,55.2,860.4,57.4z"
			/>
		<path class="st0" d="M1012.4,75.4c0-9.7,0-19.3,0-29c0-6.7,3.7-10.5,10.3-11c9-0.7,17.7,5.6,20.3,14.9c1.8,6.5,2.3,13.1-1.3,19.1
			c-1.4,2.4-3.5,4.5-5.5,6.4c-3.4,3.2-3.8,4.2-1.5,8.4c3.5,6.6,7.2,13.2,10.7,19.8c0.4,0.8,0.9,1.6,1.2,2.5c1,2.8-0.1,5.8-2.6,7.1
			c-2.3,1.2-5.1,0.5-6.7-2.1c-1.3-2.1-2.2-4.5-3.4-6.6c-1.9-3.4-3.7-6.9-5.8-10.2c-0.4-0.7-1.6-1.3-2.4-1.3c-0.4,0-1.2,1.3-1.3,2.1
			c-0.3,2.8-0.3,5.6-0.4,8.5c-0.1,1.9-0.1,3.9-0.6,5.7c-0.5,2.1-2.1,3.4-4.3,3.5c-2.2,0.2-3.8-0.9-4.6-2.8c-0.7-1.7-1.1-3.7-1.1-5.5
			c-0.1-9.7,0-19.5,0-29.2C1013.1,75.4,1012.7,75.4,1012.4,75.4z M1023,57.4c0,0-0.1,0-0.1,0c0.1,2.6,0.1,5.2,0.5,7.7
			c0.4,2.8,2.2,3.8,4.9,2.8c2.9-1.1,5.1-3.4,5.2-6.5c0.1-3.2-0.5-6.4-1.2-9.5c-0.4-1.5-1.7-2.9-3-3.8c-3-2.2-5.8-0.9-6.1,2.9
			C1022.8,53.1,1023,55.2,1023,57.4z"/>
		<path class="st0" d="M610.9,69.7c0-8.3,0-16.6,0-25c0-1.1,0.1-2.2,0.3-3.2c1.1-5.2,4.3-7.4,9.6-6.8c11.8,1.5,20.4,9.4,22.6,21.4
			c2.5,13.4,1.4,26.6-3.2,39.3c-2.7,7.7-7.5,13.9-15.6,16.8c-1.1,0.4-2.3,0.6-3.4,0.7c-5.1,0.4-8.2-2-8.7-7.1c-0.5-5-0.9-9.9-1-14.9
			c-0.2-7.1,0-14.1,0-21.2C611.3,69.7,611.1,69.7,610.9,69.7z M621.4,72.5c0.3,0,0.5,0,0.8,0c0,6.3,0,12.6,0,19c0,1.7,0.1,3.3,0.5,5
			c0.5,2.3,2.5,3,4,1.2c1.4-1.6,2.6-3.5,3.3-5.5c3.9-10.4,5.1-21.1,3.4-32.1c-0.6-3.9-1.7-7.6-4.7-10.2c-1.4-1.2-3.6-2.4-5.2-2.1
			c-2.3,0.4-2.1,3.1-2.1,5C621.4,59.3,621.4,65.9,621.4,72.5z"/>
		<path class="st0" d="M165.8,104.3c-0.2,1.1-0.1,3-1,4.4c-0.8,1.3-2.4,2.8-3.8,2.9c-1.4,0.1-3.4-1-4.3-2.2c-1-1.3-1.3-3.4-1.6-5.1
			c-0.6-3.8-0.9-7.6-1.5-11.4c-0.4-2.9-2-4.2-4.8-4.5c-1.2-0.1-2.5-0.1-3.7,0c-5,0.5-6.5,1.8-7.7,6.7c-0.9,3.5-1.5,7-2.3,10.5
			c-0.3,1.3-0.9,2.9-1.8,3.7c-1.2,0.9-3.1,1.8-4.4,1.5c-1.4-0.3-3.2-1.9-3.6-3.2c-0.6-2.1-0.3-4.5,0-6.6c3.5-20.4,9.8-39.9,18-58.9
			c0.1-0.2,0.2-0.5,0.3-0.7c1.4-2.5,3.1-4.9,6.5-4.6c3.3,0.3,4.9,2.7,5.7,5.6c1.3,5,2.8,10,3.6,15.1c2.1,13.3,3.8,26.7,5.7,40.1
			C165.2,99.6,165.4,101.6,165.8,104.3z M150.9,72.1c-0.5-2.1-0.8-4.3-1.5-6.4c-0.2-0.7-1-1.5-1.6-1.6c-0.6,0-1.6,0.7-1.9,1.3
			c-1.1,2.5-2,5.1-2.8,7.7c-0.5,1.9,0,3.5,2.1,4.2c2,0.6,4.3-0.3,5-2.1C150.7,74.2,150.7,73.2,150.9,72.1z"/>
		<path class="st0" d="M963.2,105c1.4-6.6,2.6-13.2,4.2-19.7c3.4-14.4,8.5-28.4,14.2-42c0.4-0.9,0.8-1.8,1.3-2.7
			c1.4-2.2,3.1-4,6-3.7c2.8,0.3,4.4,2.2,5.3,4.7c0.9,2.6,1.6,5.2,2.3,7.9c4.1,17.4,5.5,35.2,7.9,52.8c0.3,1.8,0,3.8-0.4,5.7
			c-0.4,2.1-1.9,3.6-4.1,3.8c-2.2,0.2-4.1-0.8-4.7-2.9c-0.8-2.3-1.1-4.8-1.5-7.3c-0.5-3-0.7-6-1.2-8.9c-0.5-2.9-2.1-4.1-5-4.2
			c-1.2-0.1-2.5-0.1-3.7,0.1c-5,0.6-6.4,2-7.6,6.9c-0.7,3.1-1.4,6.2-2,9.3c-0.1,0.6-0.2,1.1-0.4,1.7c-0.9,3.3-3.2,5.1-5.8,4.8
			C965.1,110.8,963.5,108.5,963.2,105z M989.8,72.1c-0.5-2.2-0.8-4.4-1.5-6.5c-0.7-2.1-2.5-2.3-3.4-0.3c-1.3,2.8-2.3,5.7-3,8.6
			c-0.5,2,1,3.2,3,3.5C987.9,77.7,989.6,75.8,989.8,72.1z"/>
		<path class="st0" d="M533.6,67.2c0-7.3-0.1-14.7,0-22c0-1.8,0.4-3.7,0.9-5.4c0.8-2.3,2.6-3.5,5-3.3c2.4,0.1,3.8,1.7,4.4,3.9
			c0.4,1.3,0.5,2.8,0.4,4.2c-0.3,11.8-0.8,23.6-0.8,35.5c0,5.2,0.6,10.4,1.2,15.6c0.2,1.4,1,2.8,1.8,4.1c1.7,2.6,4.7,2.9,6.4,0.3
			c1.6-2.5,2.8-5.3,3.5-8.2c3.2-13.8,3.1-27.9,2.4-42c-0.1-2.2-0.4-4.4-0.1-6.5c0.2-1.6,0.9-3.4,1.9-4.7c1.9-2.4,5.4-2,7,0.7
			c0.7,1.1,1.2,2.5,1.3,3.7c1.2,16.9,1.9,33.8-1.8,50.5c-1.2,5.3-3,10.4-6.7,14.6c-5.9,6.9-15.1,6.9-21.1,0.1
			c-3.3-3.8-5.3-8.4-5.7-13.4c-0.6-9.2-0.7-18.4-1.1-27.7C532.9,67.2,533.2,67.2,533.6,67.2z"/>
		<path class="st0" d="M957.7,55.6c-0.3,1.5-0.3,3.1-0.8,4.6c-0.6,2-2.1,3.2-4.3,3.3c-2.3,0.1-3.9-1.1-4.6-3.1
			c-0.7-2.1-1-4.4-1.5-6.5c-0.3-1.3-0.5-2.6-1-3.8c-1.4-3.4-4-4.1-6.9-1.9c-5.3,4.1-6.8,12.1-2.9,17.5c2.5,3.4,5.7,6.3,8.7,9.2
			c4,3.8,8.3,7.4,10.4,12.6c1.3,3.3,2.2,6.8,2.6,10.4c0.6,6.1-1.4,11.4-7,14.7c-5.9,3.4-12,3.5-17.8-0.2c-2.2-1.4-4.6-3.5-5.6-5.8
			c-1.7-4.1-2.5-8.5-3.5-12.9c-0.2-0.9,0.2-2,0.5-2.9c0.8-2.1,2.3-3.4,4.7-3.3c2.3,0.1,3.7,1.5,4.3,3.6c0.7,2.6,1.3,5.2,2,7.7
			c0.8,2.5,2.3,4.4,5,5c3.7,0.8,6.3-1.2,6.4-4.9c0.1-4.8-2-8.7-5.2-12c-2.6-2.6-5.5-4.9-8.1-7.4c-4.5-4.3-8.4-9-9.9-15.3
			c-2.5-10.6,3.1-22.5,13-27.3c6.6-3.2,14.1-1,17.6,5.5C956.1,46.4,957.7,50.8,957.7,55.6z"/>
		<path class="st0" d="M494,77.5c0-9,0-18,0-27c0-0.5,0-1,0-1.5c0.3-9.4,3.9-12.7,13.3-12c6.3,0.5,11.2,3.5,14.5,8.9
			c8,13.3,3.2,29.3-10.9,35.7c-4.4,2-6.3,4.8-6,9.6c0.3,5.1,0,10.3,0,15.5c0,0.7,0,1.5-0.1,2.2c-0.3,3.5-2.2,5.5-4.9,5.6
			c-2.7,0-4.7-2-5.2-5.4c-0.1-1.1-0.2-2.2-0.2-3.2c0-9.5,0-19,0-28.5C494.3,77.5,494.2,77.5,494,77.5z M504.6,59.8
			c0.1,2.7,0.1,5.3,0.4,8c0.3,2.7,2.4,3.6,4.7,2.2c5.7-3.5,7-15.1,2-19.5c-1.1-1-3.4-1.9-4.6-1.5c-1.2,0.4-2.1,2.6-2.4,4.1
			C504.2,55.3,504.5,57.6,504.6,59.8z"/>
		<path class="st0" d="M891.4,73.5c0.3-9.5,0.5-19,0.8-28.5c0.3-7.7,1.9-9.6,9.4-11c3.1-0.6,6.3-0.8,9.4-0.6c3.3,0.2,5.2,2.5,5,5.4
			c-0.1,2.5-1.6,3.9-4,4.4c-0.6,0.2-1.3,0.2-2,0.3c-6,0.7-7.3,2-7.5,8c-0.1,3.4-0.3,6.8-0.2,10.2c0.1,3.8,1.1,4.8,4.9,5.3
			c1.2,0.2,2.7,0.1,3.6,0.8c1.4,1,2.9,2.3,3.4,3.8c0.7,2-0.6,3.8-2.4,4.7c-1.5,0.8-3.2,1.3-4.9,1.7c-3.6,1-4.8,2.2-4.8,5.9
			c-0.1,4.5,0.1,9,0.3,13.5c0.2,3.2,1.5,4.4,4.7,4.8c1.6,0.2,3.2,0.2,4.7,0.5c2.7,0.6,4.2,2.4,4.2,4.8c0,2.3-1.7,4.7-4.2,4.9
			c-4.3,0.4-8.6,0.6-12.9,0.2c-3.4-0.3-5.7-2.6-6.3-6.2c-0.2-1.3-0.4-2.6-0.4-4c0-9.7,0-19.5,0-29.2
			C891.9,73.5,891.6,73.5,891.4,73.5z"/>
		<path class="st0" d="M577.9,82.6c0.4-13.3,0.7-26.6,1.1-39.9c0.1-4.3,1.7-6.7,5.8-7.7c4-1,8.2-1.3,12.3-1.6c2.2-0.2,4.1,1,5.1,3
			c1.4,2.6,0.1,5.8-2.7,6.7c-1.6,0.5-3.4,0.6-5.1,0.9c-3.2,0.6-4.7,1.9-4.9,5.1c-0.3,4.5-0.4,9-0.4,13.5c0,3.1,1.3,4.2,4.5,4.6
			c1.2,0.2,2.3,0.2,3.4,0.6c2.1,0.6,3.8,1.8,4,4.2c0.2,2.4-1,4-3,5c-1.3,0.6-2.8,1-4.3,1.3c-3.7,1-4.8,2.2-4.8,5.9
			c-0.1,4.4,0,8.8,0.2,13.2c0.1,3.5,1.5,4.8,5.1,5.1c1.4,0.1,2.8,0.1,4.2,0.4c2.7,0.6,4.3,2.4,4.3,4.8c0,2.3-1.7,4.7-4.1,4.9
			c-4.4,0.4-8.8,0.7-13.2,0.2c-4.1-0.4-6.2-3.5-6.4-8.3c-0.3-7.3-0.5-14.6-0.8-22C578.1,82.6,578,82.6,577.9,82.6z"/>
		<path class="st0" d="M817.3,72.7c0.4-10.1,0.7-20.1,1.1-30.2c0.1-3.9,2-6.7,5.7-7.5c4.1-0.9,8.3-1.4,12.5-1.6
			c2.9-0.1,4.9,1.8,5.3,4.1c0.5,2.6-0.7,4.9-3.3,5.6c-1.7,0.5-3.6,0.6-5.4,1c-2.5,0.5-4.1,1.9-4.3,4.5c-0.3,4.6-0.6,9.3-0.6,14
			c0,3.1,1.4,4.2,4.4,4.6c1.2,0.2,2.5,0.3,3.7,0.6c2.1,0.6,3.6,1.8,3.9,4.1c0.3,2.2-0.9,3.9-2.8,4.9c-1.5,0.7-3.1,1.1-4.7,1.6
			c-3.6,1-4.7,2.3-4.7,6c0,4.3,0,8.7,0.2,13c0.1,3.6,1.5,4.9,5.1,5.2c1.4,0.1,2.8,0.1,4.2,0.4c2.8,0.6,4.4,2.5,4.4,5
			c-0.1,2.4-1.9,4.7-4.5,4.9c-4,0.3-8,0.6-11.9,0.3c-4.4-0.3-6.8-2.9-7.1-7.3c-0.5-9-0.7-18-1-27c-0.1-2,0-4,0-6
			C817.5,72.7,817.4,72.7,817.3,72.7z"/>
		<path class="st0" d="M668.8,32.9c1.8,0.4,3.6,0.6,5.3,1.3c2,0.9,2.9,2.6,2.7,4.9c-0.2,2.1-1.4,3.6-3.5,4c-1.7,0.4-3.4,0.6-5.2,0.9
			c-2.9,0.6-4.3,1.9-4.5,4.8c-0.3,4.5-0.5,9-0.5,13.5c0,3.2,1.4,4.4,4.6,4.8c1.2,0.2,2.5,0.3,3.7,0.6c2,0.6,3.6,1.9,3.8,4.2
			c0.2,2.3-0.9,3.9-2.9,4.8c-1.6,0.7-3.3,1.1-5,1.6c-3.1,0.9-4.2,2.1-4.3,5.3c-0.1,4.6-0.1,9.2,0.1,13.7c0.1,3.4,1.6,4.7,5,5
			c1.5,0.1,3,0.2,4.5,0.5c2.7,0.6,4.3,2.5,4.2,4.8c0,2.3-1.7,4.7-4.2,4.9c-4.4,0.4-8.8,0.6-13.2,0.2c-4.1-0.4-6.1-3.4-6.3-8.1
			c-0.4-8.3-0.9-16.6-0.8-25c0.1-12.4,0.5-24.8,0.9-37.2c0.1-4.2,1.8-6.4,5.8-7.7c1.7-0.6,3.5-1,5.3-1.3c1.5-0.3,3-0.3,4.5-0.5
			C668.7,33,668.7,32.9,668.8,32.9z"/>
		<path class="st0" d="M308.7,113.3c-2.1-0.1-4.2,0-6.2-0.3c-4.3-0.6-6.7-2.9-7-7.2c-0.5-7.8-0.9-15.6-0.9-23.5
			c0-12.2,0.3-24.5,0.6-36.7c0-0.8,0.1-1.7,0.2-2.5c0.5-5.6,2-7.6,7.5-8.7c3.3-0.7,6.7-1,10.1-1.2c1.4-0.1,3.2,0.4,4.1,1.4
			c1.1,1.1,2,3.1,1.8,4.5c-0.2,1.4-1.7,2.8-3,3.8c-0.8,0.6-2.2,0.6-3.4,0.7c-5.2,0.6-6.5,1.9-6.8,7.1c-0.2,3.7-0.4,7.3-0.3,11
			c0.1,3.8,1.3,4.9,5,5.4c1.3,0.2,2.8,0.2,3.8,0.9c1.3,0.9,2.9,2.4,3.1,3.8c0.2,1.4-0.9,3.4-2.1,4.4c-1.4,1.1-3.5,1.5-5.3,2
			c-3.5,1-4.7,2.3-4.7,6c0,4.2,0,8.5,0.2,12.7c0.2,3.9,1.6,5.1,5.4,5.4c1.2,0.1,2.5,0.1,3.7,0.3c2.9,0.6,4.7,2.6,4.6,5
			c-0.1,2.5-2.2,4.7-5.1,5c-1.7,0.2-3.5,0.2-5.2,0.3C308.7,113.2,308.7,113.3,308.7,113.3z"/>
		<path class="st0" d="M440.2,77.1c0.3-9.5,0.6-21.6,1-33.8c0.2-5.5,1.9-7.7,7.3-8.9c3.4-0.7,6.9-1,10.4-1.2
			c1.4-0.1,3.2,0.5,4.1,1.4c1.1,1.1,2,3.1,1.8,4.5c-0.2,1.4-1.7,3-3.1,3.7c-1.5,0.8-3.5,0.7-5.3,1.1c-3,0.6-4.4,2-4.6,5
			c-0.3,4.1-0.5,8.3-0.5,12.5c0,4,1.2,5.1,5.1,5.6c1,0.1,2,0.2,3,0.5c2.1,0.6,3.8,1.8,4.1,4.2c0.2,2.4-1,4-3,5
			c-1.5,0.7-3.1,1-4.7,1.5c-3.2,0.9-4.3,2.1-4.4,5.5c-0.1,4.4-0.1,8.8,0.1,13.2c0.1,3.8,1.6,5.1,5.4,5.4c1.3,0.1,2.7,0.1,4,0.4
			c2.7,0.6,4.3,2.5,4.3,4.8c0,2.2-1.8,4.8-4.2,5c-4.4,0.4-9,0.7-13.4,0.2c-4.1-0.4-6-3.4-6.2-8.4C440.8,96.1,440.5,88,440.2,77.1z"
			/>
		<path class="st0" d="M411,80.9c-0.5-9.3-0.9-18.6-1.4-27.9c-0.2-3.7-1.8-4.9-5.5-4.9c-1.6,0-3.2,0.1-4.7-0.1
			c-2.8-0.3-4.7-2.3-4.7-4.6c0-2.3,2-5,4.5-5.2c9.3-0.8,18.6-1.6,27.9-2c1.8-0.1,4,1.2,5.3,2.6c2,2.2,0.8,5.7-2.2,6.9
			c-1.5,0.6-3.2,0.8-4.8,1.2c-3.8,0.9-4.7,1.9-4.7,5.8c0.1,8.7,0.3,17.3,0.5,26c0.2,8.7,0.4,17.5,0.4,26.2c0,1.6-0.3,3.3-0.9,4.8
			c-0.8,2-2.5,3.2-4.7,3.1c-2.2,0-3.7-1.4-4.2-3.4c-0.6-2.7-0.9-5.6-0.9-8.4c-0.1-6.7,0-13.5,0-20.2C410.8,80.9,410.9,80.9,411,80.9
			z"/>
		<path class="st0" d="M788,78.1c-0.3-6.3-0.6-14.8-1-23.3c-0.3-5.7-1.5-6.8-7.2-6.7c-1.1,0-2.2,0.1-3.2-0.1
			c-2.7-0.3-4.8-2.3-4.9-4.6c-0.1-2.2,2-5.1,4.5-5.3c9.4-0.8,18.8-1.5,28.1-2.1c0.9-0.1,1.8,0.3,2.7,0.6c2.1,0.7,3.3,2.3,3.3,4.5
			c0.1,2.1-1.1,3.7-3,4.5c-1.3,0.5-2.7,0.7-4.1,1c-4.7,1-5.7,2.1-5.6,6.9c0.2,9.2,0.4,18.3,0.6,27.5c0.2,8.2,0.3,16.3,0.3,24.5
			c0,1.7-0.4,3.6-1.3,5c-2.1,3.4-6.4,3.2-8.2-0.5c-0.7-1.5-1-3.4-1-5.1C788,96.7,788,88.5,788,78.1z"/>
		<path class="st0" d="M101.2,83.5c-0.3-9-0.5-18.3-0.8-27.6c0-1.2-0.1-2.5-0.2-3.7c-0.4-3.5-1.5-4.5-5.1-5C94.1,47,93,46.8,92,46.6
			c-2.2-0.6-3.7-2-3.9-4.3c-0.2-2.3,1.1-3.9,3.1-5c0.4-0.2,0.9-0.5,1.4-0.5c9-0.1,17.9-0.3,26.9-0.1c3.1,0.1,4.5,2.1,4.5,4.7
			c0,2.3-1.6,4.2-4.5,4.9c-1.5,0.4-3.1,0.5-4.7,0.8c-2.1,0.4-3.2,1.7-3.3,3.8c-0.1,1.4-0.2,2.8-0.1,4.2c0.2,15.4,0.5,30.8,0.6,46.2
			c0,1.8-0.1,3.7-0.5,5.4c-0.6,2.8-2.7,4.5-5,4.4c-2.5-0.1-4.6-2.1-4.9-4.9c-0.3-4-0.3-8-0.3-12C101.2,90.6,101.2,87.2,101.2,83.5z"
			/>
		<path class="st0" d="M285.4,73.3c0,10.5,0,21,0,31.5c0,0.8,0,1.7-0.1,2.5c-0.4,2.4-1.6,4.2-4.1,4.7c-2.2,0.4-4.6-0.9-5.5-3.4
			c-0.6-1.6-0.8-3.4-0.8-5.1c-0.1-13.2-0.1-26.5,0-39.7c0-7.2,0.2-14.5,0.4-21.7c0.1-1.7,0.4-3.5,1-5.1c0.7-1.9,2.3-3.1,4.4-3.1
			c2.2,0,3.6,1.3,4.2,3.3c0.5,1.5,0.7,3.3,0.7,4.9c0.1,10.4,0,20.8,0,31.2C285.5,73.3,285.4,73.3,285.4,73.3z"/>
		<path class="st0" d="M716,73.7c0,10.6,0,21.1,0,31.7c0,1.1-0.1,2.4-0.5,3.4c-1.4,3.5-5.5,4.4-7.8,1.5c-1.2-1.5-2.1-3.7-2.1-5.6
			c-0.1-20,0-39.9,0.1-59.9c0-2.2,0.3-4.5,0.8-6.7c0.6-2.7,2.7-4.3,4.9-4.2c2.7,0.1,4.1,1.9,4.6,4.2c0.4,1.8,0.5,3.8,0.5,5.7
			c0,10,0,20,0,30C716.2,73.7,716.1,73.7,716,73.7z"/>
		<path class="st0" d="M308.3,29.1c-2.6,0-4.8-1.4-5.4-3.5c-0.7-2.4,0.1-4.4,2.1-5.6c3.2-2,6.5-4,10-5.6c1.5-0.7,3.5-0.8,5-0.4
			c3.4,0.8,4.8,5.5,2.1,7.5c-3.9,3-8.5,5.1-12.8,7.5C309,29.2,308.5,29.1,308.3,29.1z"/>
	</g>
	<polygon class="st0" points="56.4,82.3 49.6,79.9 47.9,87 44.7,80.4 38.5,84.2 40.9,77.4 33.8,75.7 40.4,72.5 36.6,66.3 43.4,68.7 
		45.1,61.6 48.3,68.2 54.5,64.4 52.1,71.2 59.2,72.9 52.6,76.1 	"/>
	<polygon class="st0" points="1098.4,82.3 1091.6,79.9 1089.9,87 1086.7,80.4 1080.5,84.2 1082.9,77.4 1075.8,75.7 1082.4,72.5 
		1078.6,66.3 1085.4,68.7 1087.1,61.6 1090.3,68.2 1096.5,64.4 1094.1,71.2 1101.2,72.9 1094.6,76.1 	"/>
</g>
</svg>
