<?xml version="1.0" encoding="utf-8"?>
<!-- Generator: Adobe Illustrator 25.2.1, SVG Export Plug-In . SVG Version: 6.00 Build 0)  -->
<svg version="1.1" id="Capa_1" xmlns="http://www.w3.org/2000/svg" xmlns:xlink="http://www.w3.org/1999/xlink" x="0px" y="0px"
	 viewBox="0 0 1185 145" style="enable-background:new 0 0 1185 145;" xml:space="preserve">
<style type="text/css">
	.st0{fill:#F48CBD;}
</style>
<g>
	<path class="st0" d="M812.3,77.6c0-10.3,0-20.6,0-30.9c0-7.3,2.8-10.2,10.1-9.5c9.9,1,17.8,5.5,21.3,15.4c2.1,6,1.2,11.9-1.3,17.7
		c-0.7,1.6-1.5,3.2-2.5,4.6c-1.8,2.8-1.6,5.2,0.5,7.7c5.3,6,6,13.2,4.4,20.6c-2.3,10.5-13.1,18.1-23.8,17.2c-4.8-0.4-8-3.1-8.3-8
		c-0.4-6.6-0.3-13.3-0.4-19.9C812.2,87.6,812.3,82.6,812.3,77.6z M823.5,97.9c-0.1,0-0.1,0-0.2,0c0.1,1.9-0.1,3.9,0.4,5.7
		c0.3,1.5,1.1,3.5,2.2,3.9c1.2,0.4,3.3-0.3,4.4-1.2c3.7-2.9,5.1-9,3.3-13.4c-1.1-2.6-3-4.4-5.8-4.9c-2.7-0.6-4.1,0.3-4.3,3
		C823.3,93.3,823.5,95.6,823.5,97.9z M833.3,60.3c0-4.9-2.2-8.7-5.7-9.7c-2.4-0.7-4.2,0.2-4.3,2.6c-0.1,5,0,9.9,0.2,14.9
		c0.1,1.1,1.1,2.8,2,3c1.1,0.2,2.8-0.4,3.7-1.3C832.1,67.1,833.2,63.6,833.3,60.3z"/>
	<path class="st0" d="M393.6,59.9c0.1,5.1-1.5,9.7-4.2,13.8c-2.3,3.5-2.1,6.4,0.3,9.8c5.8,7.9,5.8,16.4,0.9,24.5
		c-4.9,8.3-12.9,11.7-22.3,11.7c-4.2,0-6.6-2.6-6.7-7.1c-0.1-6.6-0.2-13.1,0-19.7c0.4-14.3,0.9-28.5,1.4-42.8c0-0.8,0.2-1.6,0.3-2.5
		c0.8-8.8,5.2-11.6,15.1-9.2C388.1,40.9,393.7,49.3,393.6,59.9z M372.4,96c0.2,2.6,0.2,4.7,0.5,6.7c0.6,3.7,2.8,4.5,5.8,2.3
		c4.7-3.5,5.2-11.9,0.9-15.9c-0.6-0.6-1.3-1-2.1-1.3c-2.2-0.9-3.9-0.1-4.4,2.2C372.7,92,372.6,94.3,372.4,96z M373.4,63.9
		c0,0,0.1,0,0.1,0c0,0.2,0,0.5,0,0.7c0.1,2.1-0.7,4.7,1.9,5.9c1.5,0.7,3.8-1.2,5.3-4.1c2.4-4.6,2.2-10.7-0.8-13.8
		c-0.8-0.8-2.3-1.6-3.4-1.4c-0.8,0.1-1.9,1.6-2.1,2.6C374,57.1,373.8,60.5,373.4,63.9z"/>
	<path class="st0" d="M297.6,80.4c0-9.7,0-19.4,0-29.1c0-8.3,5.2-13,13.6-12.3c5.8,0.5,10.5,3.1,14.2,7.4c6.4,7.4,7.7,20.4,2.6,28.7
		c-1.3,2.2-3.2,4-5.1,5.7c-4,3.6-4.3,4.6-1.7,9.4c3.7,6.8,7.5,13.5,11.1,20.3c0.9,1.7,1.4,3.7,1.4,5.6c0,2.1-1.4,3.7-3.5,4.4
		c-2.1,0.7-4,0.3-5.5-1.3c-1-1.1-1.8-2.4-2.5-3.7c-1.9-3.7-3.6-7.5-5.5-11.1c-0.7-1.4-1.6-2.7-2.7-3.9c-0.6-0.7-1.8-1.5-2.4-1.3
		c-0.7,0.2-1.4,1.5-1.4,2.3c-0.3,2.8-0.3,5.6-0.4,8.4c-0.1,1.7,0,3.5-0.3,5.2c-0.4,2.5-2.3,4.4-4.6,4.7c-2.3,0.3-4.5-0.9-5.4-3.5
		c-0.6-1.8-0.9-3.7-0.9-5.6c-0.1-10.1,0-20.3,0-30.4C298.2,80.4,297.9,80.4,297.6,80.4z M308.7,61.9
		C308.7,61.9,308.8,61.9,308.7,61.9c0.1,2.3-0.1,4.7,0.1,7c0.4,4.3,3.1,5.5,6.7,3.2c3.3-2.1,4.5-5.3,4.2-9c-0.3-4.3-1-8.7-5.2-11.2
		c-3-1.8-5.5-0.4-5.8,3.1C308.5,57.3,308.7,59.6,308.7,61.9z"/>
	<path class="st0" d="M978.6,79.9c0-11.9,0-23.7,0-35.6c0-0.4,0-0.8,0.1-1.2c0.6-3.2,2.8-5.3,5.4-5.3c2.7,0,4.9,2.1,5.2,5.4
		c0.3,2.9,0.1,5.8,0.1,8.7c0,2.4,0,4.8,0.3,7.2c0.1,0.9,0.8,1.7,1.2,2.6c0.8-0.6,2.1-0.9,2.4-1.7c2.2-4.5,4.3-9,6.3-13.5
		c0.8-1.8,1.3-3.8,2.1-5.6c1.4-3.1,4-4.6,6.7-3.9c2.6,0.7,4.1,3.2,3.7,6.5c-0.2,1.7-0.7,3.4-1.3,5c-4.2,9.7-8.3,19.4-12.7,28.9
		c-1.7,3.8-1.3,6.7,0.9,10.2c4.7,7.5,9,15.3,13.4,23c0.5,0.9,0.9,2,1.1,3c0.4,2.2-0.9,4.7-2.7,5.7c-2,1-4.5,0.7-6-1.4
		c-2.2-3.1-3.9-6.5-5.9-9.8c-1.4-2.3-2.7-4.6-4.3-6.7c-0.7-1-2-1.5-3.1-2.2c-0.5,1.2-1.4,2.3-1.5,3.5c-0.3,2.8-0.2,5.6-0.3,8.5
		c0,1.2-0.2,2.3-0.4,3.4c-0.6,2.6-2.5,4.2-4.8,4.4c-2.3,0.1-4.4-1.4-5.1-3.9c-0.4-1.6-0.6-3.3-0.6-4.9
		C978.7,100,978.7,89.9,978.6,79.9C978.7,79.9,978.7,79.9,978.6,79.9z"/>
	<path class="st0" d="M578.5,110.4c-0.4,1.7-0.6,3.4-1.1,5.1c-0.6,1.9-2,3-4.1,3.1c-2.1,0.2-3.9-0.6-4.7-2.5c-0.8-2-1.3-4.1-1.6-6.2
		c-0.6-3.6-0.8-7.2-1.4-10.9c-0.5-3-2-4.4-5-4.6c-1.6-0.1-3.3,0-5,0.2c-3.9,0.5-6.3,2.5-7,6.6c-0.6,3.5-1.5,7-2.2,10.5
		c-0.2,1-0.5,1.9-0.9,2.8c-1.2,2.7-3.5,4-5.9,3.5c-2.4-0.5-4.4-2.7-4-5.5c0.6-5.4,1.6-10.8,2.7-16.2c3.7-17.1,9.5-33.5,16.3-49.6
		c0.2-0.4,0.3-0.8,0.5-1.1c1.5-2.7,3.3-5.2,6.8-4.9c3.5,0.3,5.3,2.9,6,5.9c2.1,9,4.2,18.1,5.7,27.2c1.8,11,3,22,4.4,33
		c0.2,1.2,0.2,2.3,0.3,3.5C578.4,110.3,578.4,110.3,578.5,110.4z M562.8,77c-0.5-2.2-0.8-4.4-1.5-6.5c-0.8-2.2-2.6-2.4-3.5-0.4
		c-1.3,2.8-2.4,5.8-3.2,8.8c-0.5,2,0.9,3.5,3,3.8C560.9,83.2,562.7,81.1,562.8,77z"/>
	<path class="st0" d="M761.6,94.1c-1.5,0.3-3.1,0.6-4.6,0.9c-2.8,0.6-4.3,2.3-5,5c-0.8,3.3-1.5,6.6-2.2,10c-0.3,1.4-0.6,2.8-1,4.1
		c-1,2.8-3.4,4.3-6,3.9c-2.5-0.4-4.5-2.7-4.3-5.6c0.2-3.5,0.8-6.9,1.5-10.3c3.8-19,9.9-37.3,17.5-55.1c0.4-0.9,0.9-1.8,1.4-2.6
		c1.4-2.2,3.2-3.9,6.1-3.6c2.8,0.3,4.6,2.1,5.4,4.6c1.3,4.1,2.7,8.2,3.3,12.5c2.5,16.1,4.8,32.1,7.1,48.2c0.4,2.8,0.3,5.8,0,8.6
		c-0.2,2.2-1.8,3.7-4.2,4c-2.6,0.3-4.5-0.8-5.3-3.2c-0.7-2.3-1.1-4.7-1.4-7c-0.4-2.6-0.6-5.3-1-7.9
		C768.3,95.5,766.5,94.1,761.6,94.1z M766,77.2c-0.5-2.2-0.9-4.6-1.6-6.7c-0.8-2.2-2.5-2.4-3.5-0.3c-1.3,2.9-2.4,6-3.1,9.1
		c-0.5,2,0.9,3.2,3,3.5C763.9,83.1,765.8,81.1,766,77.2z"/>
	<path class="st0" d="M928,110.7c-0.3,1.5-0.4,3-0.9,4.4c-0.6,1.9-2,3.2-4.1,3.4c-2.2,0.2-4.2-0.6-4.9-2.6c-0.9-2.9-1.4-5.9-1.9-8.9
		c-0.5-2.7-0.6-5.4-1.1-8.1c-0.5-3-2.1-4.3-5.1-4.5c-1.6-0.1-3.3,0-5,0.2c-3.8,0.5-6.1,2.5-6.9,6.4c-0.7,4-1.5,8-2.7,11.9
		c-0.6,1.8-2,3.7-3.7,4.7c-2.9,1.7-6.8-0.8-6.7-4.6c0-3.7,0.7-7.4,1.4-11.1c3.7-19,9.9-37.2,17.4-54.9c0.5-1.1,1-2.1,1.6-3.1
		c1.4-2.1,3.2-3.6,6-3.3c2.7,0.3,4.4,2,5.3,4.4c1.1,2.9,1.9,5.8,2.6,8.8c4.3,18.2,5.8,36.8,8.3,55.3c0.1,0.5,0.1,1,0.1,1.5
		C927.9,110.7,928,110.7,928,110.7z M912.5,77.6c-0.5-2.4-0.9-4.7-1.5-6.9c-0.2-0.8-1.1-1.7-1.7-1.8c-0.6-0.1-1.7,0.7-2,1.4
		c-1.1,2.7-2.1,5.4-2.9,8.1c-0.5,1.7,0,3.4,1.9,4c2,0.7,3.9,0.4,5.1-1.4C912,80.1,912.1,78.8,912.5,77.6z"/>
	<path class="st0" d="M689.1,110.8c-0.2,1.1-0.3,2.6-0.7,4c-0.6,2.1-1.9,3.5-4.2,3.7c-2.3,0.2-4.3-0.7-5-2.8c-0.9-2.9-1.3-6-1.8-9
		c-0.4-2.7-0.7-5.4-1.1-8.1c-0.5-2.6-2.2-4.1-4.8-4.2c-1.8-0.1-3.7,0-5.5,0.2c-3.7,0.5-5.9,2.6-6.6,6.4c-0.7,4-1.5,8-2.7,11.9
		c-0.5,1.7-1.9,3.6-3.4,4.6c-2.9,1.8-7-0.5-6.9-4.2c0.1-4.1,0.8-8.2,1.6-12.3c3.7-18.5,9.7-36.3,17.1-53.7c0.5-1.1,1.1-2.3,1.7-3.3
		c1.4-2.1,3.2-3.6,6-3.3c2.7,0.3,4.4,2,5.3,4.4c1,2.5,1.7,5,2.3,7.6c3.9,15.9,5.4,32.2,7.6,48.4
		C688.3,104.1,688.7,107.3,689.1,110.8z M673.7,77.2c-0.6-2.3-1-4.7-1.8-6.9c-0.7-2-2.4-2.2-3.2-0.3c-1.4,3.1-2.4,6.3-3.2,9.5
		c-0.4,1.7,0.9,2.9,2.7,3.2C671.4,83.3,673.4,81.2,673.7,77.2z"/>
	<path class="st0" d="M162.8,72.5c0-8,0-16.1,0-24.1c0-0.8,0.1-1.7,0.2-2.5c0.5-3.6,2.8-5.8,5.8-5.7c2.8,0.1,5.2,2.6,5.1,6.3
		c0,5.7-0.5,11.4-0.5,17.2c-0.1,11.5-0.1,23.1,0.1,34.6c0.1,2.6,1.3,5.3,2.6,7.7c1.7,3,5.1,3.3,6.8,0.3c1.8-3.2,3.2-6.7,4-10.3
		c3.3-14.9,2.7-30,2-45.1c-0.1-1.6-0.1-3.2,0.1-4.7c0.4-2.9,2.5-5,5-5.1c2.3-0.1,4.5,1.3,5,4.3c0.7,4.3,1.2,8.7,1.3,13.1
		c0.2,11.4,0.6,22.7-1.3,34c-1.4,8.2-2.8,16.4-8.7,22.9c-5.5,6.2-14.1,6.8-20.2,1.2c-4-3.6-6.7-8.3-7.1-13.6
		c-0.8-10.1-1.1-20.2-1.6-30.2C161.9,72.5,162.4,72.5,162.8,72.5z"/>
	<path class="st0" d="M732.7,59.9c-0.3,1.8-0.4,3.6-1,5.3c-0.7,2.1-2.5,3.2-4.6,3.2c-2,0-3.8-1.1-4.5-3.1c-0.7-2.2-1.1-4.5-1.7-6.7
		c-0.4-1.5-0.6-3.1-1.2-4.5c-1.4-3.3-4.1-4-7-1.8c-5.9,4.3-7.2,13.1-2.6,19.1c2.3,2.9,5,5.5,7.8,8c4.6,4.3,9.5,8.4,12,14.4
		c1.8,4.3,2.8,8.9,2.4,13.6c-1.1,12.6-14.9,17.3-24.2,12.7c-3.9-1.9-6.9-4.7-8.5-8.7c-1.6-4-3.1-8.1-2.6-12.5c0.1-1.1,0.4-2.3,1-3.3
		c1-1.8,2.6-2.8,4.7-2.6c2.1,0.2,3.5,1.5,4.1,3.5c0.8,2.6,1.2,5.4,2.1,7.9c0.7,1.8,1.9,3.5,3.3,4.8c1.7,1.5,4,1.6,6.1,0.5
		c2-1,2.6-2.9,2.6-5c-0.1-5-2.3-9.1-5.8-12.5c-3.6-3.5-7.4-6.7-10.9-10.2c-4.4-4.4-7.3-9.6-8.1-15.9c-1.3-10.5,5.7-22.5,15.6-26.2
		c6.4-2.4,13.7,0.3,17.1,6.6C730.9,50.6,732.7,55,732.7,59.9z"/>
	<path class="st0" d="M245,60.1c-0.4,1.8-0.5,3.6-1.1,5.3c-0.7,2-2.4,3-4.5,3.1c-2.1,0-3.8-1-4.5-3c-0.8-2.3-1.2-4.8-1.8-7.2
		c-0.3-1.2-0.5-2.4-0.9-3.6c-1.5-4.1-4.4-4.8-7.8-2c-5.4,4.5-6.6,12.6-2.4,18.2c2.3,3,5.1,5.6,7.8,8.3c2.4,2.4,5,4.6,7.3,7.1
		c5.6,6.1,7.8,13.3,7.2,21.5c-0.7,9.9-10.8,15.3-19.3,13.8c-7.1-1.2-11.9-5.3-14.2-12.1c-0.7-2.2-1.5-4.4-1.7-6.7
		c-0.2-2.2,0-4.5,0.6-6.6c0.6-2,2.4-3.2,4.6-3.1c2.4,0.1,3.9,1.4,4.5,3.6c0.8,2.7,1.3,5.5,2.2,8.2c0.8,2.7,2.5,4.7,5.4,5.3
		c3.7,0.8,6.5-1.3,6.6-5.1c0.1-5.2-2.3-9.5-5.9-13c-3.6-3.5-7.4-6.7-10.9-10.2c-5.2-5.2-8.4-11.4-8.1-18.9c0.4-10,5.2-17.5,14-22.3
		c7.1-3.8,15.2-1,19,6.1C243.6,51.4,244.5,54.7,245,60.1z"/>
	<path class="st0" d="M943.1,82.4c0.6,6.8,0.6,13.5,3.2,19.9c1.4,3.6,3.4,5.6,5.7,5.4c2.3-0.2,4.4-2.5,5.1-6.1
		c0.8-3.8,1.2-7.7,2-11.5c0.7-3.6,2.9-5.4,5.7-5.2c2.8,0.3,5,2.8,4.8,6.2c-0.4,7.4-0.6,14.9-5.3,21.4c-6.9,9.4-19.4,9.2-25.7-0.6
		c-3.2-5-4.7-10.6-5.6-16.4c-1.4-9.2-0.6-18.4,0.3-27.5c0.7-6.8,2.5-13.2,5.3-19.3c1.7-3.6,4.2-6.6,7.7-8.6
		c6.6-3.8,13.7-2.2,17.8,4.3c3.8,6.1,5.7,12.7,5.1,19.9c-0.1,1-0.3,2.2-0.8,3.1c-1,1.9-2.7,3-4.9,2.9c-2.2-0.2-3.8-1.6-4.3-3.6
		c-0.7-2.6-0.9-5.2-1.5-7.8c-0.4-1.8-0.8-3.8-1.7-5.4c-1.8-3.6-5.1-3.9-7-0.3c-1.7,3.2-3,6.7-3.7,10.2
		C944.4,69.7,943.9,76.1,943.1,82.4z"/>
	<path class="st0" d="M262.6,82.4c0.8,5.9,1.5,11.8,2.5,17.6c0.3,1.8,1.2,3.6,2.2,5.2c2.2,3.4,5.9,3.4,7.8,0
		c1.2-2.2,1.7-4.8,2.3-7.3c0.6-2.8,0.8-5.7,1.5-8.6c0.7-2.9,2.8-4.5,5.3-4.4c2.4,0.2,4.8,2.1,4.8,4.9c0,7.8-0.2,15.7-4.9,22.4
		c-7.3,10.3-20.7,9.5-26.7-1.7c-3.3-6.1-5-12.7-5.3-19.5c-0.7-13.1,0-26,4.4-38.5c1.9-5.3,4.7-9.9,9.9-12.6c6.1-3.3,12.6-2,16.6,3.7
		c4.3,6.1,6.1,13,5.9,20.4c0,0.8-0.2,1.7-0.5,2.4c-0.8,2.3-2.5,3.8-5,3.9c-2.5,0.1-4.1-1.4-4.7-3.7c-0.8-3.1-1.2-6.3-1.8-9.5
		c-0.3-1.3-0.7-2.6-1.3-3.7c-1.8-3.5-4.9-3.7-6.9-0.3c-1.4,2.4-2.4,5.1-3.2,7.8c-0.9,3.3-1.5,6.6-1.9,10c-0.4,3.8-0.5,7.6-0.7,11.4
		C262.9,82.4,262.8,82.4,262.6,82.4z"/>
	<path class="st0" d="M137.3,121.9c-5.7-0.7-9.7-3.2-12.7-7.7c-3.6-5.5-4.1-11.9-4.4-18.2c-0.1-3.4,2.4-5.9,5.2-6
		c2.6-0.1,5,2.1,5.6,5.4c0.5,2.5,0.7,5.1,1.2,7.6c0.3,1.3,0.8,2.5,1.4,3.7c0.9,1.8,2.3,2.9,4.4,2.5c2.1-0.4,3.6-2,3.4-4
		c-0.2-2.8-0.6-5.9-1.9-8.3c-2.5-4.6-5.7-8.8-8.7-13c-3.6-5-7.2-10-8.4-16.2c-1.2-6.2-1-12.3,1.8-18c2.8-5.6,7.5-8.8,13.7-8.9
		c6.1-0.1,10.5,3.2,12.8,8.7c1.4,3.3,2.2,6.7,3.1,10.2c0.3,1.2,0.1,2.7-0.3,3.9c-0.7,2.8-2.6,4.3-5.1,4.4c-2.3,0-4.3-1.3-5.1-4
		c-0.7-2.3-1.1-4.7-1.7-7c-0.6-2.1-1.6-4-4.1-4c-2.5,0-3.5,1.9-4.2,4c-1.2,3.8-1,7.6,0.8,11.1c1.8,3.4,3.8,6.8,6.2,9.8
		c4.9,6.1,9.3,12.5,11.8,20.1c2.8,8.5,0.5,16.1-6.8,20.7C143,120.3,140,120.9,137.3,121.9z"/>
	<path class="st0" d="M618.8,81.6c-0.3,7.4-0.1,14.8,2.2,21.9c0.6,2,1.5,3.9,3.9,3.9c2.5,0,3.5-2,4.2-4c0.9-2.7,1.4-5.5,2.3-8.1
		c0.5-1.4,1.2-2.8,2.2-3.8c2.8-2.8,7.2-1.4,8.2,2.4c0.2,0.8,0.5,1.7,0.3,2.4c-1.3,5.1-2.3,10.4-4.4,15.2c-2.6,6.1-8,8.5-14.4,8.1
		c-6.1-0.4-10.2-4.1-12.1-9.7c-1.6-4.7-2.9-9.6-3.2-14.5c-0.9-13.9-0.7-27.9,2.8-41.5c1-3.9,3-7.8,5.5-11c6.1-8.1,16.6-7.3,21.7,1.4
		c2.6,4.3,4,9,2.8,14c-0.7,2.8-2.5,4.4-5,4.4c-2.5,0.1-4.4-1.4-5.2-4.2c-0.5-1.7-0.4-3.7-1.1-5.3c-0.5-1.2-1.8-2.7-2.9-2.8
		c-1.1-0.1-3,1.2-3.3,2.3c-1.4,4.5-2.8,9-3.5,13.7C619.2,71.3,619.2,76.4,618.8,81.6z"/>
	<path class="st0" d="M1055.6,120c-0.7,0.1-1.5,0.1-2.2,0.2c-7.7,0.3-11.2-2.8-11.4-10.4c-0.4-14.4-0.7-28.9-0.7-43.3
		c0-6.8,0.5-13.6,0.8-20.4c0.2-3.6,1.9-6.4,5.4-7.3c4.2-1,8.6-1.6,13-2c1.5-0.1,3.2,0.7,4.6,1.6c1.7,1,2.2,2.9,1.8,4.8
		c-0.4,2-1.6,3.3-3.5,3.8c-1.9,0.5-3.9,0.7-5.9,1.1c-2.6,0.4-4.1,2-4.3,4.5c-0.3,4.8-0.6,9.6-0.6,14.4c0,3.6,1.5,4.8,5.1,5.1
		c1.2,0.1,2.3,0.2,3.4,0.6c2.1,0.6,3.7,1.9,4,4.3c0.3,2.2-0.8,4-2.7,4.9c-1.7,0.8-3.6,1.3-5.4,1.9c-3.4,1-4.7,2.2-4.7,5.8
		c-0.1,4.8,0,9.6,0.3,14.4c0.2,3.2,1.5,4.3,4.7,4.8c1.7,0.2,3.5,0.2,5.2,0.6c2.9,0.6,4.5,2.8,4.4,5.3c-0.2,2.5-2.1,4.5-4.8,5
		c-1.1,0.2-2.1,0.3-3.2,0.4c-1.1,0.1-2.2,0-3.2,0C1055.6,119.9,1055.6,119.9,1055.6,120z"/>
	<path class="st0" d="M481.7,83.2c0.3-9.9,0.6-23.3,1.1-36.7c0.2-4.6,1.9-7,6.4-8.1c3.8-0.9,7.7-1.3,11.5-1.6c1.3-0.1,2.8,0.4,4.1,1
		c2.2,1,3,2.9,2.7,5.3c-0.3,2.3-1.7,3.6-3.8,4.1c-1.9,0.4-3.8,0.7-5.6,1c-2.4,0.4-4,1.9-4.1,4.3c-0.3,5-0.6,10.1-0.5,15.1
		c0,3,1.6,4.2,4.6,4.5c1.3,0.1,2.7,0.2,3.9,0.6c2,0.6,3.6,1.9,3.9,4.1c0.4,2.2-0.7,4-2.6,5c-1.7,0.9-3.5,1.4-5.4,1.9
		c-3.6,1-4.8,2.2-4.9,5.9c-0.1,4.8,0.1,9.6,0.3,14.4c0.2,3.1,1.4,4.3,4.5,4.7c1.6,0.2,3.2,0.2,4.7,0.4c3.2,0.5,5,2.5,4.9,5.3
		c-0.1,2.7-2,4.9-5.1,5.2c-3.9,0.3-7.8,0.6-11.7,0.4c-4.8-0.3-7.5-3-7.8-7.8C482.4,103.7,482.2,95.2,481.7,83.2z"/>
	<path class="st0" d="M416.8,120c-0.5,0-1,0.1-1.5,0.1c-8,0.4-11.8-2.8-11.8-10.8c-0.1-20-0.1-40,0-59.9c0-8.3,1.5-10.1,9.7-11.8
		c3.4-0.7,7.1-0.8,10.6-0.5c3,0.2,4.7,2.6,4.7,5.2c-0.1,2.7-1.5,4.3-4.7,5c-1.5,0.3-3.1,0.6-4.7,0.8c-2.8,0.4-4.3,2.2-4.5,4.9
		c-0.3,4.7-0.5,9.4-0.5,14.2c0,3.4,1.6,4.7,5,5c1.2,0.1,2.5,0.2,3.7,0.6c2,0.6,3.6,1.9,3.9,4.1c0.4,2.2-0.7,4-2.6,5
		c-1.6,0.9-3.4,1.3-5.1,1.8c-4,1.1-5,2.4-5.1,6.5c0,4.3,0,8.6,0.2,12.9c0.1,4,1.4,5.3,5.4,5.7c1.6,0.2,3.3,0.2,4.9,0.6
		c2.6,0.7,4.1,2.7,4,5c-0.1,2.4-1.9,4.5-4.4,5c-1.2,0.2-2.5,0.4-3.7,0.4c-1.2,0.1-2.3,0-3.5,0C416.8,119.9,416.8,120,416.8,120z"/>
	<path class="st0" d="M462.1,84.8c0,9,0.1,18.1-0.1,27.1c0,1.8-0.5,3.9-1.4,5.4c-2.2,3.6-6.8,3.2-8.6-0.6c-0.7-1.6-1-3.5-1.1-5.3
		c-0.3-14.6-0.4-29.2-0.6-43.8c-0.1-3.6-0.4-7.1-0.8-10.7c-0.4-3.3-1.9-4.6-5.3-4.7c-1.7,0-3.5,0.2-5.2-0.1
		c-3.1-0.4-5.1-2.4-5.2-4.8c-0.1-2.5,2.2-5.2,5.1-5.6c2.8-0.4,5.6-0.7,8.4-1c6.1-0.5,12.3-0.9,18.4-1.2c1.6-0.1,3.3,0.2,4.9,0.7
		c2.2,0.6,3.5,2.4,3.6,4.6c0.1,2.2-1,3.9-3.1,4.7c-1.6,0.6-3.3,0.9-5,1.3c-4.2,0.9-5.2,2.2-5.2,6.5c0,9.1,0,18.3,0,27.4
		C461.4,84.8,461.8,84.8,462.1,84.8z"/>
	<path class="st0" d="M865,74.5c0.3,9.4,0.5,18.7,0.8,28.1c0.2,5.2,1.3,6.4,6.5,7.3c1.9,0.3,3.8,0.7,5.4,1.6c1.9,1.1,3,3,2.4,5.3
		c-0.6,2.2-2.2,3.9-4.4,3.9c-4.8-0.1-9.7-0.2-14.3-1.2c-4-0.8-5.8-4.1-6.1-8.2c-1.5-20.9-1.5-41.8-0.5-62.7c0.1-1.7,0.5-3.5,1.1-5.1
		c1-2.4,3.6-3.6,5.9-3.1c2.3,0.5,3.9,2.4,3.9,5.1c0.1,9.6,0,19.2,0,28.9C865.5,74.5,865.2,74.5,865,74.5z"/>
	<path class="st0" d="M351.8,78.5c0,11,0,22.1,0,33.1c0,0.7,0,1.5-0.1,2.2c-0.4,2.6-2.1,4.5-4.4,4.8c-2.6,0.4-4.4-0.9-5.5-3.1
		c-0.7-1.3-1.2-2.8-1.2-4.3c0.1-21.7,0.2-43.3,0.4-65c0-1.7,0.3-3.5,0.9-5.1c0.7-2.3,2.5-3.9,4.9-3.9c2.4,0,4,1.7,4.6,3.9
		c0.5,1.6,0.6,3.4,0.6,5.2c0,10.7,0,21.4,0,32.1C352,78.5,351.9,78.5,351.8,78.5z"/>
	<path class="st0" d="M1031.6,78.4c0,11,0,22.1,0,33.1c0,0.5,0,1,0,1.5c-0.2,3.1-2,5.3-4.6,5.7c-2.4,0.4-4.8-1.2-5.8-4.1
		c-0.4-1.2-0.7-2.6-0.7-3.9c0-20.3,0.1-40.5,0.2-60.8c0-2.4,0.3-4.8,0.6-7.2c0.4-3,2.8-5.5,5.3-5.5c2.5,0,5,2.5,5.2,5.8
		c0.2,3.1,0.1,6.3,0.1,9.5c0,8.6,0,17.3,0,25.9C1031.7,78.4,1031.7,78.4,1031.6,78.4z"/>
	<path class="st0" d="M1073.9,72.1c0-7.2-0.1-14.4,0-21.6c0-1.9,0.4-4,1.1-5.8c0.7-1.9,2.5-2.9,4.6-2.8c2.2,0.1,3.8,1.4,4.4,3.5
		c0.5,1.8,0.9,3.7,1,5.6c0.2,14.2,0.4,28.3,0.5,42.5c0,1.4-0.1,2.8-0.2,4.2c-0.3,2.9-2.3,5-4.8,5.2c-2.3,0.2-4.9-1.7-5.2-4.5
		c-0.6-4.9-0.8-9.9-1-14.9c-0.1-3.8,0-7.6,0-11.4C1074.1,72.1,1074,72.1,1073.9,72.1z"/>
	<path class="st0" d="M101.5,91.7c0.4-10.2,0.7-18.7,1.1-27.3c0-1,0.3-2,0.8-2.8c1-2,2.6-3.3,5-2.9c2.3,0.3,3.8,1.8,4.3,4
		c0.3,1.3,0.4,2.8,0.4,4.2c-0.1,14.6-0.3,29.2-0.5,43.8c0,1.6-0.2,3.2-0.6,4.7c-0.7,2.9-2.8,4.5-5.3,4.3c-2.4-0.2-4.5-2.2-4.9-4.9
		c-0.2-1.2-0.2-2.5-0.2-3.7C101.5,104,101.5,97,101.5,91.7z"/>
	<path class="st0" d="M347.5,32.7c-2.6,0-4.4-1.2-5.4-3.5c-0.8-2-0.1-4.7,2-5.9c3.7-2.3,7.4-4.3,11.3-6.3c2-1,4.2-0.8,6.2,0.5
		c2.4,1.7,3.1,5.6,0.6,7.3c-4.2,2.9-8.8,5.2-13.3,7.7C348.5,32.8,347.9,32.7,347.5,32.7z"/>
	<path class="st0" d="M107.3,51.6c-2.7,0-4.9-2.5-4.8-5.2c0.1-2.5,2.4-4.6,4.9-4.6c2.7,0,5,2.4,4.9,5.1
		C112.3,49.5,110,51.7,107.3,51.6z"/>
	<path class="st0" d="M1079.8,109.9c2.8,0,5,2.2,5,4.8c0,2.7-2.3,4.9-5,4.9c-2.7,0-5.1-2.3-5.1-4.8
		C1074.9,112.1,1077.2,109.9,1079.8,109.9z"/>
</g>
<polygon class="st0" points="44.1,64.3 46.8,72.1 54.2,68.5 50.7,76 58.5,78.7 50.7,81.5 54.2,88.9 46.8,85.4 44.1,93.1 41.3,85.4 
	33.9,88.9 37.4,81.5 29.7,78.7 37.4,76 33.9,68.5 41.3,72.1 "/>
<polygon class="st0" points="1142.9,64.3 1145.7,72.1 1153.1,68.5 1149.6,76 1157.3,78.7 1149.6,81.5 1153.1,88.9 1145.7,85.4 
	1142.9,93.1 1140.2,85.4 1132.8,88.9 1136.3,81.5 1128.5,78.7 1136.3,76 1132.8,68.5 1140.2,72.1 "/>
</svg>
