<?xml version="1.0" standalone="no"?>
<!DOCTYPE svg PUBLIC "-//W3C//DTD SVG 1.1//EN" "http://www.w3.org/Graphics/SVG/1.1/DTD/svg11.dtd" >
<svg xmlns="http://www.w3.org/2000/svg" xmlns:xlink="http://www.w3.org/1999/xlink" version="1.1">
<metadata></metadata>
<defs>
<font id="gt_super_ds_trialsu" horiz-adv-x="1224" >
<font-face units-per-em="2048" ascent="1563" descent="-485" />
<missing-glyph horiz-adv-x="409" />
<glyph horiz-adv-x="0" />
<glyph horiz-adv-x="682" />
<glyph unicode=" "  horiz-adv-x="409" />
<glyph unicode="&#x09;" horiz-adv-x="409" />
<glyph unicode="&#xa0;" horiz-adv-x="409" />
<glyph unicode="," horiz-adv-x="595" d="M82 188q0 77 47 130t135 53q95 0 162.5 -73t67.5 -210q0 -49 -6 -90.5t-26.5 -92.5t-54.5 -91.5t-95 -79.5t-142 -64l-16 47q56 17 96 38.5t59.5 39.5t30.5 40.5t12.5 35t1.5 29.5q0 48 -26.5 73t-89.5 43q-72 21 -114 59.5t-42 112.5z" />
<glyph unicode="-" horiz-adv-x="710" d="M61 561v129h588v-129h-588z" />
<glyph unicode="." horiz-adv-x="563" d="M82 170q0 82 59 140.5t142 58.5q82 0 140 -58.5t58 -140.5q0 -83 -58 -142t-140 -59q-83 0 -142 59t-59 142z" />
<glyph unicode="0" horiz-adv-x="1269" d="M72 578q0 144 46 261.5t124.5 192.5t179 115.5t213.5 40.5t213.5 -40.5t179 -115.5t124.5 -192.5t46 -261.5t-46 -261t-124.5 -192t-179 -115.5t-213.5 -40.5t-213.5 40.5t-179 115.5t-124.5 192t-46 261zM492 578q0 -155 6.5 -253t23 -163.5t43.5 -92t70 -26.5t70 26.5 t43.5 92t23 163.5t6.5 253t-6.5 253t-23 163.5t-43.5 92.5t-70 27t-70 -27t-43.5 -92.5t-23 -163.5t-6.5 -253z" />
<glyph unicode="1" horiz-adv-x="952" d="M72 948l596 240h20v-963q0 -94 54 -142.5t159 -68.5v-14h-815v14q110 25 161.5 70.5t51.5 140.5v574q0 70 -29.5 105.5t-97.5 35.5q-31 0 -92 -16z" />
<glyph unicode="2" horiz-adv-x="1087" d="M51 0v16l264 238q151 137 212 242t61 231q0 122 -60 189t-157 67q-91 0 -154 -50.5t-102 -158.5l-25 6q31 192 162 300t334 108q195 0 307.5 -89t112.5 -243q0 -135 -98 -243.5t-328 -239.5l-88 -49h555l-103 -324h-893z" />
<glyph unicode="3" horiz-adv-x="1087" d="M61 -61l23 14q47 -68 98 -98.5t131 -30.5q121 0 202 90t81 238q0 140 -68.5 218.5t-189.5 78.5h-43v38h47q113 0 181.5 81t68.5 210q0 125 -60 197t-172 72q-92 0 -156 -51.5t-110 -153.5l-22 10q37 158 164 247t317 89q209 0 332 -92.5t123 -249.5q0 -147 -97.5 -246 t-273.5 -125v-10q76 -1 143.5 -23.5t120.5 -65t84 -111.5t31 -156q0 -174 -134 -300t-329 -126q-166 0 -295.5 64.5t-196.5 191.5z" />
<glyph unicode="4" horiz-adv-x="1179" d="M20 150v73l744 934h164v-919h231v-88h-231v-437h-389v437h-519zM129 242h410v516z" />
<glyph unicode="5" horiz-adv-x="1105" d="M20 -96l37 22q34 -66 96.5 -102.5t145.5 -36.5q129 0 205 98t76 277q0 141 -60.5 225t-163.5 84q-98 0 -159 -65l-54 32l168 719h774l-94 -307h-653l-78 -334q95 68 270 68q117 0 208.5 -33.5t147.5 -92t84.5 -134.5t28.5 -164q0 -217 -157.5 -347t-395.5 -130 q-157 0 -265.5 60t-160.5 161z" />
<glyph unicode="6" horiz-adv-x="1222" d="M61 575q0 228 110.5 417.5t308.5 300t442 110.5q131 0 239 -37l-16 -39q-65 21 -154 21q-106 0 -187 -28t-136 -78t-92.5 -127.5t-56.5 -168.5t-27 -209q44 54 116.5 83.5t159.5 29.5q176 0 279.5 -104.5t103.5 -274.5q0 -142 -60 -254.5t-180.5 -180t-283.5 -67.5 q-251 0 -408.5 166t-157.5 440zM485 555q0 -252 34.5 -394.5t103.5 -142.5q108 0 108 326q0 189 -42 278t-134 89q-33 0 -68 -21q-2 -43 -2 -135z" />
<glyph unicode="7" horiz-adv-x="1042" d="M41 850l94 307h897v-10l-700 -1434h-244l727 1137h-774z" />
<glyph unicode="8" horiz-adv-x="1202" d="M51 317q0 115 80 199t231 119l-79 53q-195 131 -195 334q0 179 135.5 280t374.5 101q222 0 357 -85.5t135 -227.5q0 -100 -77.5 -169.5t-211.5 -97.5l174 -112q82 -53 129 -133.5t47 -182.5q0 -185 -152.5 -305.5t-420.5 -120.5q-237 0 -382 95.5t-145 252.5zM362 356 q0 -156 66 -243.5t186 -87.5q93 0 148 51.5t55 140.5q0 113 -100 180l-299 201q-56 -98 -56 -242zM416 1192q0 -120 129 -203l203 -131q40 81 40 209q0 135 -54 207t-159 72q-77 0 -118 -39.5t-41 -114.5z" />
<glyph unicode="9" horiz-adv-x="1222" d="M61 -281l17 39q62 -20 153 -20q107 0 189 31t137.5 87.5t93 143t56.5 188.5t26 234q-45 -55 -118 -85t-160 -30q-170 0 -274.5 109.5t-104.5 292.5q0 213 140.5 346t379.5 133q251 0 408 -166t157 -440q0 -185 -65 -351t-177.5 -286.5t-273.5 -191t-344 -70.5 q-135 0 -240 36zM492 813q0 -189 42 -278t134 -89q32 0 67 21q2 43 2 135q0 537 -129 537q-55 0 -85.5 -87t-30.5 -239z" />
<glyph unicode="A" horiz-adv-x="1542" d="M10 0v10q63 28 104 88t81 174l403 1162h340l426 -1203q32 -90 69 -141.5t99 -79.5v-10h-733v10q96 48 96 166q0 62 -27 143l-65 197h-441l-86 -256q-17 -51 -17 -93q0 -104 103 -157v-10h-352zM385 582h395l-196 589z" />
<glyph unicode="B" horiz-adv-x="1445" d="M61 0v10q44 18 70.5 40t44 67t17.5 114v979q0 98 -30.5 141t-101.5 72v11h744q255 0 384.5 -84t129.5 -250q0 -159 -111.5 -249.5t-318.5 -102.5v-13h23q214 -1 345 -89q138 -94 138 -263q0 -190 -153 -286.5t-454 -96.5h-727zM623 61h67q101 0 162 87t61 233 q0 169 -58 247.5t-189 78.5h-43v-646zM623 758h43q202 0 202 313q0 301 -206 301h-39v-614z" />
<glyph unicode="C" horiz-adv-x="1331" d="M51 702q0 165 55 308.5t151 245.5t231.5 160.5t291.5 58.5q130 0 261 -32t239 -89l-170 -465l-10 2q-26 209 -125 317.5t-262 108.5q-150 0 -237 -105t-87 -286q0 -278 147.5 -450.5t385.5 -172.5q135 0 213 42.5t118 137.5l15 -6q-117 -518 -576 -518q-287 0 -464 205 t-177 538z" />
<glyph unicode="D" horiz-adv-x="1515" d="M61 0v10q44 18 70.5 40t44 67t17.5 114v979q0 98 -30.5 141t-101.5 72v11h680q333 0 528 -193t195 -518q0 -177 -58.5 -317.5t-158.5 -227.5t-227.5 -132.5t-271.5 -45.5h-687zM623 61h30q101 0 164 26t107 96t62 190t18 311q0 200 -20.5 333.5t-65.5 212t-108.5 110.5 t-156.5 32h-30v-1311z" />
<glyph unicode="E" horiz-adv-x="1277" d="M61 0v10q44 18 70.5 40t44 67t17.5 114v979q0 98 -30.5 141t-101.5 72v11h1080l33 -512h-11q-57 199 -189 324.5t-300 125.5h-51v-606h20q129 0 211 68.5t115 169.5h10v-562h-10q-15 51 -42 95.5t-66 82.5t-95.5 60t-122.5 22h-20v-641h51q191 0 317 126t215 386h11 l-56 -573h-1100z" />
<glyph unicode="F" horiz-adv-x="1204" d="M61 1423v11h1080l33 -512h-11q-60 213 -193 331.5t-296 118.5h-51v-629h30q110 0 198 77t118 177h10v-559h-10q-30 99 -118.5 176.5t-197.5 77.5h-30v-461q0 -100 44 -151t148 -70v-10h-752v10q59 24 91 62t39 112v1026q0 98 -30.5 141t-101.5 72z" />
<glyph unicode="G" horiz-adv-x="1490" d="M51 694q0 234 103 411.5t293 273.5t442 96q257 0 473 -119l-152 -414h-10q-15 224 -96 329t-238 105q-334 0 -334 -573q0 -218 46 -397.5t126 -282.5t177 -103q33 0 49 13v397q0 106 -37 160t-123 74v10h700v-10q-63 -26 -97 -82t-34 -131v-338q-98 -69 -252 -111.5 t-307 -42.5q-336 0 -532.5 198t-196.5 537z" />
<glyph unicode="H" horiz-adv-x="1638" d="M61 0v10q65 26 98.5 77.5t33.5 139.5v979q0 88 -33.5 139.5t-98.5 77.5v11h693v-11q-65 -26 -98 -77t-33 -140v-440h393v440q0 89 -33 140t-98 77v11h692v-11q-65 -26 -98 -77t-33 -140v-979q0 -89 33 -140t98 -77v-10h-692v10q65 26 98 77t33 140v473h-393v-473 q0 -89 33 -140t98 -77v-10h-693z" />
<glyph unicode="I" horiz-adv-x="815" d="M61 0v10q44 18 70.5 40t44 67t17.5 114v979q0 98 -30.5 141t-101.5 72v11h693v-11q-63 -26 -97 -82t-34 -131v-979q0 -76 35.5 -136t95.5 -85v-10h-693z" />
<glyph unicode="J" horiz-adv-x="792" d="M-27 -113h17q103 0 167 79.5t64 230.5v1013q0 68 -16.5 110.5t-42 62.5t-72.5 40v11h692v-11q-63 -26 -97 -82t-34 -131v-917q0 -226 -129.5 -338.5t-357.5 -112.5q-115 0 -191 29v16z" />
<glyph unicode="K" horiz-adv-x="1667" d="M61 0v10q44 18 70.5 40t44 67t17.5 114v979q0 98 -30.5 141t-101.5 72v11h693v-11q-63 -26 -97 -82t-34 -131v-979q0 -76 35.5 -136t95.5 -85v-10h-693zM623 727l385 377q60 58 86 96t26 82q0 119 -178 141v11h602v-11q-23 -6 -46 -15t-41 -16.5t-40.5 -21.5t-35.5 -21 t-36.5 -25.5t-32 -24.5t-33 -28t-29.5 -26t-31.5 -28.5t-28.5 -26.5l-211 -209l469 -750q72 -117 113 -159.5t96 -61.5v-10h-594z" />
<glyph unicode="L" horiz-adv-x="1185" d="M61 0v10q44 18 70.5 40t44 67t17.5 114v979q0 98 -30.5 141t-101.5 72v11h693v-11q-63 -26 -97 -82t-34 -131v-1149h4q171 0 307.5 152.5t206.5 411.5h14l-65 -625h-1029z" />
<glyph unicode="M" horiz-adv-x="1914" d="M20 0v10q83 35 111.5 92t36.5 195l53 917q1 10 1 19q0 58 -27 104q-31 54 -97 86v11h561l318 -789l319 789h529v-11q-126 -52 -126 -204q0 -10 1 -21l55 -975q9 -159 139 -213v-10h-720v10q148 68 148 265q0 14 -1 28l-43 873l-483 -1196h-13l-483 1196l-53 -879 q-2 -35 -2 -65q0 -34 3 -60q6 -48 28 -79.5t52.5 -48t86.5 -34.5v-10h-394z" />
<glyph unicode="N" horiz-adv-x="1552" d="M61 0v10q98 26 135 75.5t37 156.5v991l-172 190v11h566l669 -701v467q0 98 -34 144t-138 79v11h398v-11q-82 -23 -117 -75t-35 -148v-1220h-10l-1049 1165v-903q0 -103 39 -152t133 -80v-10h-422z" />
<glyph unicode="O" horiz-adv-x="1638" d="M51 717q0 341 211 549.5t557 208.5t557 -208.5t211 -549.5t-211 -549.5t-557 -208.5t-557 208.5t-211 549.5zM532 717q0 -350 69 -511t218 -161t218 161t69 511t-69 511t-218 161t-218 -161t-69 -511z" />
<glyph unicode="P" horiz-adv-x="1359" d="M61 0v10q44 18 70.5 40t44 67t17.5 114v979q0 98 -30.5 141t-101.5 72v11h668q296 0 448 -109t152 -309t-152 -309t-448 -109h-106v-367q0 -100 44 -151t148 -70v-10h-754zM623 657h30q90 0 152.5 103t62.5 256t-62.5 255.5t-152.5 102.5h-30v-717z" />
<glyph unicode="Q" horiz-adv-x="1638" d="M51 717q0 341 211 549.5t557 208.5t557 -208.5t211 -549.5q0 -277 -142 -470t-390 -259q157 -119 322.5 -163t365.5 -44q109 0 201.5 23.5t134.5 60.5l10 -10q-86 -86 -262 -149.5t-395 -63.5q-306 0 -581.5 113t-533.5 356q-266 250 -266 606zM532 717q0 -350 69 -511 t218 -161t218 161t69 511t-69 511t-218 161t-218 -161t-69 -511z" />
<glyph unicode="R" horiz-adv-x="1574" d="M61 0v10q44 18 70.5 40t44 67t17.5 114v979q0 98 -30.5 141t-101.5 72v11h705q292 0 428.5 -94t136.5 -259q0 -95 -63 -176.5t-170 -129.5t-232 -48v-14h18q152 0 263 -64q118 -68 162 -192l102 -287q46 -128 154 -156v-14h-547q-8 11 -15 23t-14 27t-11 24t-11.5 29 t-9.5 26t-10 30.5t-9 28.5l-107 324q-34 101 -67 139.5t-94 38.5h-47v-459q0 -76 35.5 -136t95.5 -85v-10h-693zM623 741h39q95 0 146.5 88t51.5 242q0 303 -198 303h-39v-633z" />
<glyph unicode="S" horiz-adv-x="1183" d="M31 96l129 391h10q52 -205 194.5 -319.5t307.5 -114.5q89 0 145.5 47.5t56.5 128.5q0 56 -31 100t-114 81l-340 155q-147 69 -226 187t-79 256q0 70 17.5 134.5t59 126t103 106.5t157 72.5t214.5 27.5q133 0 278 -37t240 -90l-147 -336h-11q-59 181 -180 276.5t-262 95.5 q-104 0 -153.5 -42.5t-49.5 -100.5q0 -114 144 -184l350 -166q162 -75 227.5 -173.5t65.5 -238.5q0 -145 -67 -263t-192 -187.5t-284 -69.5q-323 0 -563 137z" />
<glyph unicode="T" horiz-adv-x="1241" d="M20 911v584h11q53 -61 182 -61h815q129 0 182 61h11v-584h-11q-14 78 -45.5 155t-76 142t-105.5 105.5t-127 40.5h-20v-1123q0 -100 44 -151t148 -70v-10h-815v10q104 19 148.5 70t44.5 151v1123h-21q-66 0 -127 -40.5t-105.5 -105.5t-76 -142t-45.5 -155h-11z" />
<glyph unicode="U" horiz-adv-x="1421" d="M10 1423v11h733v-11q-90 -32 -131 -83.5t-41 -159.5v-639q0 -198 81 -302t235 -104t234.5 104t80.5 302v639q0 108 -41 159.5t-131 83.5v11h381v-11q-70 -29 -100.5 -72.5t-30.5 -140.5v-716q0 -247 -143.5 -391t-405.5 -144q-289 0 -439.5 152t-150.5 444v655 q0 68 -16.5 110.5t-42 62.5t-72.5 40z" />
<glyph unicode="V" horiz-adv-x="1507" d="M10 1423v11h778v-11q-59 -10 -96 -45.5t-37 -95.5q0 -51 29 -113l266 -575l258 575q27 65 27 113q0 58 -31.5 94.5t-79.5 46.5v11h373v-11q-69 -21 -109 -70.5t-96 -174.5l-536 -1198h-8l-549 1226q-17 38 -27.5 59.5t-29 52.5t-36 48.5t-42.5 33.5t-54 23z" />
<glyph unicode="W" horiz-adv-x="2127" d="M10 1423v11h707v-11q-70 -26 -70 -104q0 -64 37 -150l221 -532l119 283l-119 286q-22 54 -52 119.5t-44 97.5v11h686v-11q-59 -10 -95 -44.5t-36 -94.5q0 -48 27 -115l221 -534l223 534q25 60 25 113q0 58 -31 94.5t-78 46.5v11h367v-11q-70 -22 -110 -70.5t-91 -174.5 l-496 -1198h-8l-350 843l-348 -843h-8l-508 1226q-38 93 -79 147t-110 70z" />
<glyph unicode="X" horiz-adv-x="1665" d="M10 0v10q216 65 357 242l299 371l-396 587q-108 162 -247 213v11h839v-11q-104 -17 -104 -123q0 -36 22 -81t70 -119l139 -211l164 211q96 125 96 200q0 105 -110 123v11h448v-11q-127 -45 -293 -262l-260 -340l402 -606q56 -85 105.5 -133.5t113.5 -71.5v-10h-809v10 q98 43 98 142q0 33 -19 71.5t-67 112.5l-143 215l-232 -289q-59 -76 -59 -125q0 -86 94 -127v-10h-508z" />
<glyph unicode="Y" horiz-adv-x="1425" d="M10 1423v11h756v-11q-58 -12 -90.5 -51t-32.5 -98q0 -65 39 -133l209 -367l207 367q39 68 39 133q0 59 -31.5 98t-89.5 51v11h399v-11q-37 -7 -103.5 -76t-121.5 -169l-264 -488v-459q0 -100 44 -151t148 -70v-10h-815v10q104 19 148.5 70t44.5 151v453l-285 541 q-99 186 -201 198z" />
<glyph unicode="Z" horiz-adv-x="1314" d="M31 0v10l743 1362h-82q-66 -2 -124.5 -14.5t-106.5 -35.5t-88.5 -51t-75 -68t-61.5 -78t-53.5 -89.5t-45.5 -95t-41 -100.5h-10l57 594h1131v-11l-733 -1362h82q106 3 201.5 45t162 102.5t122.5 140t89 148t55 136.5h11l-64 -633h-1169z" />
<glyph unicode="a" horiz-adv-x="1181" d="M51 233q0 137 106.5 231.5t293.5 133.5l135 29v35q0 241 -215 241q-100 0 -164.5 -46t-102.5 -159l-14 4q27 190 147 297t314 107q216 0 320 -126t104 -343v-361q0 -51 22.5 -76.5t55.5 -25.5q31 0 58.5 19t39.5 65l20 -2q-25 -141 -112.5 -214t-212.5 -73 q-105 0 -169 49t-79 136l-6 2q-26 -83 -97 -135t-176 -52q-122 0 -195 78t-73 186zM401 342q0 -77 35 -122.5t92 -45.5q41 0 58 23v368l-29 -6q-156 -31 -156 -217z" />
<glyph unicode="b" horiz-adv-x="1230" d="M31 1335v11l489 149v-555q39 79 120.5 122.5t178.5 43.5q156 0 253 -130.5t97 -340.5q0 -154 -49.5 -280.5t-136.5 -210.5t-205 -129.5t-256 -45.5q-100 0 -205 23.5t-186 64.5v1125q0 60 -23.5 97.5t-76.5 55.5zM520 55q22 -16 62 -16q78 0 123 113.5t45 334.5 q0 231 -46.5 339t-121.5 108q-48 0 -62 -31v-848z" />
<glyph unicode="c" horiz-adv-x="991" d="M51 518q0 255 153 421.5t394 166.5q214 0 373 -88l-156 -371l-10 2q-9 158 -72 236t-158 78q-119 0 -177 -80t-58 -211q0 -68 21 -135.5t62 -127t111 -96.5t158 -37q177 0 248 125l12 -4q-12 -190 -130.5 -309t-293.5 -119q-213 0 -345 151.5t-132 397.5z" />
<glyph unicode="d" horiz-adv-x="1241" d="M61 498q0 266 142 437t358 171q96 0 150 -41v119q0 60 -38 97.5t-114 37.5v10l541 166v-1331q0 -71 24 -101t76 -53v-10h-489v182q-32 -95 -104 -154t-181 -59q-168 0 -266.5 147t-98.5 382zM481 602q0 -198 45.5 -313t110.5 -115q53 0 74 43v799q-20 20 -60 20 q-53 0 -92 -57.5t-58.5 -155t-19.5 -221.5z" />
<glyph unicode="e" horiz-adv-x="1015" d="M51 516q0 170 61.5 304.5t171.5 210t248 75.5q57 0 111 -12t112 -45.5t101 -85.5t70.5 -139t27.5 -199h-589q23 -172 110 -261.5t225 -89.5q157 0 234 109l16 -4q-20 -113 -67 -196t-109 -128t-126 -65.5t-130 -20.5q-90 0 -173 36t-149 102.5t-105.5 172.5t-39.5 236z M356 745q0 -39 2 -57h254q0 133 -14.5 211t-41 108.5t-69.5 30.5q-63 0 -97 -77t-34 -216z" />
<glyph unicode="f" horiz-adv-x="737" d="M51 0v10q101 44 101 154v860h-101v51h101v8q0 184 103 288t288 104q102 0 172 -24t135 -69l-158 -204l-10 2q-8 104 -61 157.5t-125 53.5q-68 0 -104 -43.5t-36 -90.5q0 -146 138 -182h178v-51h-131v-860q0 -124 141 -154v-10h-631z" />
<glyph unicode="g" horiz-adv-x="1105" d="M20 -205q0 57 42 108t112 72q-106 70 -106 220q0 90 53.5 166.5t128.5 101.5q-83 46 -127.5 120.5t-44.5 168.5q0 161 128 257.5t341 96.5q115 0 213 -31h321v-51h-213q152 -97 152 -272q0 -164 -129 -260.5t-344 -96.5q-148 0 -254 47q-51 -20 -51 -65q0 -36 28 -56.5 t78 -23.5l453 -35q137 -11 216 -81t79 -201q0 -55 -16 -109.5t-57 -111.5t-104 -100.5t-166.5 -71t-234.5 -27.5q-263 0 -380.5 59t-117.5 176zM225 -102q0 -115 104.5 -184.5t288.5 -69.5q139 0 219.5 41.5t80.5 115.5q0 37 -31.5 58.5t-120.5 29.5l-455 43q-34 2 -80 17 q-6 -24 -6 -51zM451 737q0 -155 23.5 -225t74.5 -70t74.5 70t23.5 225q0 169 -23.5 246.5t-74.5 77.5t-74.5 -77.5t-23.5 -246.5z" />
<glyph unicode="h" horiz-adv-x="1255" d="M41 0v10q100 44 100 154v1018q0 60 -23.5 97.5t-76.5 55.5v11l489 149v-575q34 89 109 137.5t178 48.5q138 0 217.5 -79t79.5 -218v-645q0 -110 100 -154v-10h-548v10q32 15 45.5 46t13.5 87v664q0 125 -94 125q-65 0 -101 -51v-738q0 -56 14 -87t46 -46v-10h-549z" />
<glyph unicode="i" horiz-adv-x="681" d="M51 0v10q101 44 101 154v629q0 73 -22.5 109.5t-78.5 53.5v11l490 139v-942q0 -110 100 -154v-10h-590zM133 1323q0 85 58.5 144t144.5 59t144.5 -59t58.5 -144q0 -84 -58.5 -142.5t-144.5 -58.5t-144.5 58.5t-58.5 142.5z" />
<glyph unicode="j" horiz-adv-x="663" d="M-59 -399q12 -2 32 -2q77 0 128 72t51 200v922q0 73 -22.5 109.5t-78.5 53.5v11l490 139v-1112q0 -97 -24 -174.5t-74 -136.5t-133 -91t-195 -32q-106 0 -174 30v11zM129 1323q0 85 58.5 144t144.5 59t144.5 -59t58.5 -144q0 -84 -58.5 -142.5t-144.5 -58.5t-144.5 58.5 t-58.5 142.5z" />
<glyph unicode="k" horiz-adv-x="1386" d="M41 0v10q100 44 100 154v1018q0 60 -23.5 97.5t-76.5 55.5v11l489 149v-1352q0 -56 22.5 -87t76.5 -46v-10h-588zM541 555l301 231q67 53 94 92t27 80q0 102 -140 107v10h467v-10q-102 -62 -280 -209l-133 -111l333 -591q37 -66 75 -98t91 -46v-10h-551z" />
<glyph unicode="l" horiz-adv-x="671" d="M41 0v10q100 44 100 154v1018q0 60 -23.5 97.5t-76.5 55.5v11l489 149v-1331q0 -110 101 -154v-10h-590z" />
<glyph unicode="m" horiz-adv-x="1808" d="M51 0v10q101 44 101 154v629q0 73 -22.5 109.5t-78.5 53.5v11l490 139v-188q31 92 100 140t166 48q112 0 186 -52t99 -147q23 87 101 143t177 56q140 0 218.5 -79t78.5 -220v-643q0 -110 100 -154v-10h-538v10q38 18 49 56v741q0 127 -94 127q-57 0 -86 -60q6 -30 6 -67 v-664q0 -56 13.5 -87t45.5 -46v-10h-508v10q32 15 46 46t14 87v664q0 127 -94 127q-52 0 -80 -51v-740q0 -56 13.5 -87t45.5 -46v-10h-549z" />
<glyph unicode="n" horiz-adv-x="1265" d="M51 0v10q101 44 101 154v629q0 73 -22.5 109.5t-78.5 53.5v11l490 139v-186q34 90 108 138t178 48q140 0 218.5 -77.5t78.5 -219.5v-645q0 -110 101 -154v-10h-549v10q32 15 45.5 46t13.5 87v666q0 125 -94 125q-62 0 -100 -51v-740q0 -56 13.5 -87t45.5 -46v-10h-549z " />
<glyph unicode="o" d="M51 539q0 252 157.5 409.5t403.5 157.5t404 -157.5t158 -409.5t-158 -411t-404 -159t-403.5 159t-157.5 411zM461 539q0 -178 16.5 -285.5t49 -155t85.5 -47.5t86 47t49.5 155t16.5 286q0 264 -36 375.5t-116 111.5q-53 0 -85.5 -47t-49 -154.5t-16.5 -285.5z" />
<glyph unicode="p" horiz-adv-x="1230" d="M31 -399q100 44 100 153v1039q0 73 -22 109.5t-78 53.5v11l489 139v-170q37 83 113.5 126.5t165.5 43.5q166 0 268 -141t102 -371q0 -279 -142.5 -452t-373.5 -173q-76 0 -133 33v-248q0 -123 142 -153v-11h-631v11zM520 57q25 -22 62 -22q76 0 122 119t46 313 q0 217 -47 342t-132 125q-32 0 -51 -25v-852z" />
<glyph unicode="q" horiz-adv-x="1210" d="M61 444q0 314 172.5 488t471.5 174q208 0 395 -94v-1258q0 -109 100 -153v-11h-631v11q67 18 104.5 51.5t37.5 101.5v424q-32 -91 -115 -150t-174 -59q-71 0 -131.5 28.5t-102 76t-71 109.5t-43 128t-13.5 133zM481 653q0 -479 162 -479q45 0 68 37v825q-18 11 -47 11 q-83 0 -133 -111.5t-50 -282.5z" />
<glyph unicode="r" horiz-adv-x="911" d="M51 0v10q101 44 101 154v602q0 83 -24 127t-77 61v11l473 141v-504h13q10 263 96 383.5t227 120.5h31v-371h-10q-42 25 -121 25q-52 0 -90 -14t-68.5 -49.5t-45.5 -101t-15 -161.5v-270q0 -124 141 -154v-10h-631z" />
<glyph unicode="s" horiz-adv-x="944" d="M31 115l123 276l12 -2q39 -139 137.5 -234.5t214.5 -95.5q78 0 113 34.5t35 80.5q0 73 -72 102l-318 148q-200 95 -200 303q0 52 16 104t52 102t88 88t130.5 61.5t172.5 23.5q217 0 378 -119l-127 -237l-12 2q-29 79 -70 135.5t-85.5 84.5t-84.5 40t-81 12 q-69 0 -102.5 -26t-33.5 -68q0 -73 86 -115l302 -139q190 -89 190 -289q0 -80 -28.5 -153t-82.5 -133t-142.5 -96t-199.5 -36q-115 0 -221.5 39.5t-189.5 106.5z" />
<glyph unicode="t" horiz-adv-x="802" d="M31 1018v10q72 61 236.5 194t250.5 208h2v-359h189v-51h-189v-701q0 -67 29 -106t82 -39q55 0 91 30.5t52 74.5l19 -7q-18 -60 -49.5 -112t-77.5 -96t-111.5 -69.5t-142.5 -25.5q-140 0 -210.5 80.5t-70.5 214.5v754h-100z" />
<glyph unicode="u" d="M31 1016v10l489 80v-815q0 -117 96 -117q54 0 78 43v633q0 77 -15.5 116t-53.5 56v10l458 74v-942q0 -71 24.5 -101t76.5 -53v-10h-490v184q-30 -94 -102.5 -154.5t-175.5 -60.5q-133 0 -209 78t-76 248v553q0 76 -22 113.5t-78 54.5z" />
<glyph unicode="v" horiz-adv-x="1134" d="M10 1065v10h639v-10q-90 -21 -90 -92q0 -26 21 -80l163 -387l164 387q21 54 21 78q0 73 -90 94v10h286v-10q-43 -12 -73 -46.5t-62 -105.5l-414 -933h-12l-418 933q-31 68 -62 103.5t-73 48.5z" />
<glyph unicode="w" horiz-adv-x="1794" d="M10 1065v10h594v-10q-47 -30 -47 -84q0 -28 25 -94l149 -383l131 291l-78 170q-32 75 -69 100v10h588v-10q-43 -4 -67 -29.5t-24 -54.5q0 -34 21 -88l164 -389l164 389q20 48 20 86q0 30 -24 56t-66 30v10h293v-10q-16 -7 -27 -14t-31.5 -23.5t-40.5 -45.5t-36 -69 l-400 -933h-10l-342 739l-350 -739h-10l-392 933q-52 123 -135 152z" />
<glyph unicode="x" horiz-adv-x="1280" d="M10 1065v10h699v-8q-93 -24 -93 -86q0 -50 52 -127l96 -149l98 122q66 83 66 134q0 40 -28 68.5t-75 37.5v8h389v-10q-51 -13 -116.5 -64.5t-118.5 -119.5l-182 -230l309 -481q50 -76 85 -110.5t79 -49.5v-10h-699v10q95 9 95 90q0 50 -45 121l-117 187l-131 -160 q-62 -76 -62 -131q0 -38 30 -68t77 -39v-10h-395v10q114 43 210 162l234 291l-279 444q-57 91 -90 120t-88 38z" />
<glyph unicode="y" horiz-adv-x="1136" d="M-61 -371l114 314h10q44 -43 118.5 -68t131.5 -25q187 0 250 93l8 12l-421 950q-61 134 -136 160v10h623v-10q-86 -29 -86 -92q0 -48 18 -96l164 -426l160 401q22 56 22 100q0 92 -96 113v10h307v-10q-48 -17 -78.5 -58t-64.5 -126l-371 -955q-79 -205 -182 -285.5 t-250 -80.5q-54 0 -120.5 16.5t-120.5 52.5z" />
<glyph unicode="z" horiz-adv-x="1085" d="M51 0v8l531 1012h-21q-145 0 -268 -117t-178 -307h-11l62 479h868v-8l-530 -1012h10q155 0 284 123t193 334h10l-30 -512h-920z" />
<glyph unicode="&#xaa;" horiz-adv-x="1181" d="M51 233q0 137 106.5 231.5t293.5 133.5l135 29v35q0 241 -215 241q-100 0 -164.5 -46t-102.5 -159l-14 4q27 190 147 297t314 107q216 0 320 -126t104 -343v-361q0 -51 22.5 -76.5t55.5 -25.5q31 0 58.5 19t39.5 65l20 -2q-25 -141 -112.5 -214t-212.5 -73 q-105 0 -169 49t-79 136l-6 2q-26 -83 -97 -135t-176 -52q-122 0 -195 78t-73 186zM401 342q0 -77 35 -122.5t92 -45.5q41 0 58 23v368l-29 -6q-156 -31 -156 -217z" />
<glyph unicode="&#xad;" horiz-adv-x="710" d="M61 561v129h588v-129h-588z" />
<glyph unicode="&#xba;" d="M51 539q0 252 157.5 409.5t403.5 157.5t404 -157.5t158 -409.5t-158 -411t-404 -159t-403.5 159t-157.5 411zM461 539q0 -178 16.5 -285.5t49 -155t85.5 -47.5t86 47t49.5 155t16.5 286q0 264 -36 375.5t-116 111.5q-53 0 -85.5 -47t-49 -154.5t-16.5 -285.5z" />
<glyph unicode="&#xc0;" horiz-adv-x="1542" d="M10 0v10q63 28 104 88t81 174l403 1162h340l426 -1203q32 -90 69 -141.5t99 -79.5v-10h-733v10q146 74 69 309l-65 197h-441l-86 -256q-59 -175 86 -250v-10h-352zM385 582h395l-196 589z" />
<glyph unicode="&#xc1;" horiz-adv-x="1542" d="M10 0v10q63 28 104 88t81 174l403 1162h340l426 -1203q32 -90 69 -141.5t99 -79.5v-10h-733v10q146 74 69 309l-65 197h-441l-86 -256q-59 -175 86 -250v-10h-352zM385 582h395l-196 589z" />
<glyph unicode="&#xc2;" horiz-adv-x="1542" d="M10 0v10q63 28 104 88t81 174l403 1162h340l426 -1203q32 -90 69 -141.5t99 -79.5v-10h-733v10q146 74 69 309l-65 197h-441l-86 -256q-59 -175 86 -250v-10h-352zM385 582h395l-196 589z" />
<glyph unicode="&#xc3;" horiz-adv-x="1542" d="M10 0v10q63 28 104 88t81 174l403 1162h340l426 -1203q32 -90 69 -141.5t99 -79.5v-10h-733v10q146 74 69 309l-65 197h-441l-86 -256q-59 -175 86 -250v-10h-352zM385 582h395l-196 589z" />
<glyph unicode="&#xc4;" horiz-adv-x="1542" d="M10 0v10q63 28 104 88t81 174l403 1162h340l426 -1203q32 -90 69 -141.5t99 -79.5v-10h-733v10q146 74 69 309l-65 197h-441l-86 -256q-59 -175 86 -250v-10h-352zM385 582h395l-196 589z" />
<glyph unicode="&#xc5;" horiz-adv-x="1542" d="M10 0v10q63 28 104 88t81 174l403 1162h340l426 -1203q32 -90 69 -141.5t99 -79.5v-10h-733v10q146 74 69 309l-65 197h-441l-86 -256q-59 -175 86 -250v-10h-352zM385 582h395l-196 589z" />
<glyph unicode="&#xc6;" horiz-adv-x="2820" d="M10 0v10q63 28 104 88t81 174l403 1162h340l426 -1203q32 -90 69 -141.5t99 -79.5v-10h-733v10q146 74 69 309l-65 197h-441l-86 -256q-59 -175 86 -250v-10h-352zM385 582h395l-196 589zM1604 0v10q44 18 70.5 40t43.5 67t17 114v979q0 68 -16.5 110.5t-42 62.5 t-72.5 40v11h1079l33 -512h-11q-57 199 -189 324.5t-300 125.5h-51v-606h20q129 0 211 68.5t115 169.5h10v-562h-10q-15 51 -42 95.5t-66 82.5t-95.5 60t-122.5 22h-20v-641h51q191 0 317 126t215 386h11l-56 -573h-1099z" />
<glyph unicode="&#xc7;" horiz-adv-x="1331" d="M51 702q0 165 55 308.5t151 245.5t231.5 160.5t291.5 58.5q130 0 261 -32t239 -89l-170 -465l-10 2q-26 209 -125 317.5t-262 108.5q-150 0 -237 -105t-87 -286q0 -278 147.5 -450.5t385.5 -172.5q135 0 213 42.5t118 137.5l15 -6q-117 -518 -576 -518q-287 0 -464 205 t-177 538z" />
<glyph unicode="&#xc8;" horiz-adv-x="1277" d="M61 0v10q44 18 70.5 40t44 67t17.5 114v979q0 98 -30.5 141t-101.5 72v11h1080l33 -512h-11q-57 199 -189 324.5t-300 125.5h-51v-606h20q129 0 211 68.5t115 169.5h10v-562h-10q-15 51 -42 95.5t-66 82.5t-95.5 60t-122.5 22h-20v-641h51q191 0 317 126t215 386h11 l-56 -573h-1100z" />
<glyph unicode="&#xc9;" horiz-adv-x="1277" d="M61 0v10q44 18 70.5 40t44 67t17.5 114v979q0 98 -30.5 141t-101.5 72v11h1080l33 -512h-11q-57 199 -189 324.5t-300 125.5h-51v-606h20q129 0 211 68.5t115 169.5h10v-562h-10q-15 51 -42 95.5t-66 82.5t-95.5 60t-122.5 22h-20v-641h51q191 0 317 126t215 386h11 l-56 -573h-1100z" />
<glyph unicode="&#xca;" horiz-adv-x="1277" d="M61 0v10q44 18 70.5 40t44 67t17.5 114v979q0 98 -30.5 141t-101.5 72v11h1080l33 -512h-11q-57 199 -189 324.5t-300 125.5h-51v-606h20q129 0 211 68.5t115 169.5h10v-562h-10q-15 51 -42 95.5t-66 82.5t-95.5 60t-122.5 22h-20v-641h51q191 0 317 126t215 386h11 l-56 -573h-1100z" />
<glyph unicode="&#xcb;" horiz-adv-x="1277" d="M61 0v10q44 18 70.5 40t44 67t17.5 114v979q0 98 -30.5 141t-101.5 72v11h1080l33 -512h-11q-57 199 -189 324.5t-300 125.5h-51v-606h20q129 0 211 68.5t115 169.5h10v-562h-10q-15 51 -42 95.5t-66 82.5t-95.5 60t-122.5 22h-20v-641h51q191 0 317 126t215 386h11 l-56 -573h-1100z" />
<glyph unicode="&#xcc;" horiz-adv-x="815" d="M61 0v10q44 18 70.5 40t44 67t17.5 114v979q0 98 -30.5 141t-101.5 72v11h693v-11q-63 -26 -97 -82t-34 -131v-979q0 -76 35.5 -136t95.5 -85v-10h-693z" />
<glyph unicode="&#xcd;" horiz-adv-x="815" d="M61 0v10q44 18 70.5 40t44 67t17.5 114v979q0 98 -30.5 141t-101.5 72v11h693v-11q-63 -26 -97 -82t-34 -131v-979q0 -76 35.5 -136t95.5 -85v-10h-693z" />
<glyph unicode="&#xce;" horiz-adv-x="815" d="M61 0v10q44 18 70.5 40t44 67t17.5 114v979q0 98 -30.5 141t-101.5 72v11h693v-11q-63 -26 -97 -82t-34 -131v-979q0 -76 35.5 -136t95.5 -85v-10h-693z" />
<glyph unicode="&#xcf;" horiz-adv-x="815" d="M61 0v10q44 18 70.5 40t44 67t17.5 114v979q0 98 -30.5 141t-101.5 72v11h693v-11q-63 -26 -97 -82t-34 -131v-979q0 -76 35.5 -136t95.5 -85v-10h-693z" />
<glyph unicode="&#xd0;" horiz-adv-x="1515" d="M61 0v10q44 18 70.5 40t44 67t17.5 114v979q0 98 -30.5 141t-101.5 72v11h680q333 0 528 -193t195 -518q0 -177 -58.5 -317.5t-158.5 -227.5t-227.5 -132.5t-271.5 -45.5h-687zM623 61h30q101 0 164 26t107 96t62 190t18 311q0 200 -20.5 333.5t-65.5 212t-108.5 110.5 t-156.5 32h-30v-1311z" />
<glyph unicode="&#xd1;" horiz-adv-x="1552" d="M61 0v10q98 26 135 75.5t37 156.5v991l-172 190v11h566l669 -701v467q0 98 -34 144t-138 79v11h398v-11q-82 -23 -117 -75t-35 -148v-1220h-10l-1049 1165v-903q0 -103 39 -152t133 -80v-10h-422z" />
<glyph unicode="&#xd2;" horiz-adv-x="1638" d="M51 717q0 341 211 549.5t557 208.5t557 -208.5t211 -549.5t-211 -549.5t-557 -208.5t-557 208.5t-211 549.5zM532 717q0 -350 69 -511t218 -161t218 161t69 511t-69 511t-218 161t-218 -161t-69 -511z" />
<glyph unicode="&#xd3;" horiz-adv-x="1638" d="M51 717q0 341 211 549.5t557 208.5t557 -208.5t211 -549.5t-211 -549.5t-557 -208.5t-557 208.5t-211 549.5zM532 717q0 -350 69 -511t218 -161t218 161t69 511t-69 511t-218 161t-218 -161t-69 -511z" />
<glyph unicode="&#xd4;" horiz-adv-x="1638" d="M51 717q0 341 211 549.5t557 208.5t557 -208.5t211 -549.5t-211 -549.5t-557 -208.5t-557 208.5t-211 549.5zM532 717q0 -350 69 -511t218 -161t218 161t69 511t-69 511t-218 161t-218 -161t-69 -511z" />
<glyph unicode="&#xd5;" horiz-adv-x="1638" d="M51 717q0 341 211 549.5t557 208.5t557 -208.5t211 -549.5t-211 -549.5t-557 -208.5t-557 208.5t-211 549.5zM532 717q0 -350 69 -511t218 -161t218 161t69 511t-69 511t-218 161t-218 -161t-69 -511z" />
<glyph unicode="&#xd6;" horiz-adv-x="1638" d="M51 717q0 341 211 549.5t557 208.5t557 -208.5t211 -549.5t-211 -549.5t-557 -208.5t-557 208.5t-211 549.5zM532 717q0 -350 69 -511t218 -161t218 161t69 511t-69 511t-218 161t-218 -161t-69 -511z" />
<glyph unicode="&#xd8;" horiz-adv-x="1638" d="M51 717q0 341 211 549.5t557 208.5t557 -208.5t211 -549.5t-211 -549.5t-557 -208.5t-557 208.5t-211 549.5zM532 717q0 -350 69 -511t218 -161t218 161t69 511t-69 511t-218 161t-218 -161t-69 -511z" />
<glyph unicode="&#xd9;" horiz-adv-x="1421" d="M10 1423v11h733v-11q-90 -32 -131 -83.5t-41 -159.5v-639q0 -198 81 -302t235 -104t234.5 104t80.5 302v639q0 108 -41 159.5t-131 83.5v11h381v-11q-70 -29 -100.5 -72.5t-30.5 -140.5v-716q0 -247 -143.5 -391t-405.5 -144q-289 0 -439.5 152t-150.5 444v655 q0 68 -16.5 110.5t-42 62.5t-72.5 40z" />
<glyph unicode="&#xda;" horiz-adv-x="1421" d="M10 1423v11h733v-11q-90 -32 -131 -83.5t-41 -159.5v-639q0 -198 81 -302t235 -104t234.5 104t80.5 302v639q0 108 -41 159.5t-131 83.5v11h381v-11q-70 -29 -100.5 -72.5t-30.5 -140.5v-716q0 -247 -143.5 -391t-405.5 -144q-289 0 -439.5 152t-150.5 444v655 q0 68 -16.5 110.5t-42 62.5t-72.5 40z" />
<glyph unicode="&#xdb;" horiz-adv-x="1421" d="M10 1423v11h733v-11q-90 -32 -131 -83.5t-41 -159.5v-639q0 -198 81 -302t235 -104t234.5 104t80.5 302v639q0 108 -41 159.5t-131 83.5v11h381v-11q-70 -29 -100.5 -72.5t-30.5 -140.5v-716q0 -247 -143.5 -391t-405.5 -144q-289 0 -439.5 152t-150.5 444v655 q0 68 -16.5 110.5t-42 62.5t-72.5 40z" />
<glyph unicode="&#xdc;" horiz-adv-x="1421" d="M10 1423v11h733v-11q-90 -32 -131 -83.5t-41 -159.5v-639q0 -198 81 -302t235 -104t234.5 104t80.5 302v639q0 108 -41 159.5t-131 83.5v11h381v-11q-70 -29 -100.5 -72.5t-30.5 -140.5v-716q0 -247 -143.5 -391t-405.5 -144q-289 0 -439.5 152t-150.5 444v655 q0 68 -16.5 110.5t-42 62.5t-72.5 40z" />
<glyph unicode="&#xdd;" horiz-adv-x="1425" d="M10 1423v11h756v-11q-58 -12 -90.5 -51t-32.5 -98q0 -65 39 -133l209 -367l207 367q39 68 39 133q0 59 -31.5 98t-89.5 51v11h399v-11q-37 -7 -103.5 -76t-121.5 -169l-264 -488v-459q0 -100 44 -151t148 -70v-10h-815v10q104 19 148.5 70t44.5 151v453l-285 541 q-99 186 -201 198z" />
<glyph unicode="&#xde;" horiz-adv-x="1359" d="M61 0v10q44 18 70.5 40t44 67t17.5 114v979q0 98 -30.5 141t-101.5 72v11h668q296 0 448 -109t152 -309t-152 -309t-448 -109h-106v-367q0 -100 44 -151t148 -70v-10h-754zM623 657h30q90 0 152.5 103t62.5 256t-62.5 255.5t-152.5 102.5h-30v-717z" />
<glyph unicode="&#xe0;" horiz-adv-x="1181" d="M51 233q0 137 106.5 231.5t293.5 133.5l135 29v35q0 241 -215 241q-100 0 -164.5 -46t-102.5 -159l-14 4q27 190 147 297t314 107q216 0 320 -126t104 -343v-361q0 -51 22.5 -76.5t55.5 -25.5q31 0 58.5 19t39.5 65l20 -2q-25 -141 -112.5 -214t-212.5 -73 q-105 0 -169 49t-79 136l-6 2q-26 -83 -97 -135t-176 -52q-122 0 -195 78t-73 186zM401 342q0 -77 35 -122.5t92 -45.5q41 0 58 23v368l-29 -6q-156 -31 -156 -217z" />
<glyph unicode="&#xe1;" horiz-adv-x="1181" d="M51 233q0 137 106.5 231.5t293.5 133.5l135 29v35q0 241 -215 241q-100 0 -164.5 -46t-102.5 -159l-14 4q27 190 147 297t314 107q216 0 320 -126t104 -343v-361q0 -51 22.5 -76.5t55.5 -25.5q31 0 58.5 19t39.5 65l20 -2q-25 -141 -112.5 -214t-212.5 -73 q-105 0 -169 49t-79 136l-6 2q-26 -83 -97 -135t-176 -52q-122 0 -195 78t-73 186zM401 342q0 -77 35 -122.5t92 -45.5q41 0 58 23v368l-29 -6q-156 -31 -156 -217z" />
<glyph unicode="&#xe2;" horiz-adv-x="1181" d="M51 233q0 137 106.5 231.5t293.5 133.5l135 29v35q0 241 -215 241q-100 0 -164.5 -46t-102.5 -159l-14 4q27 190 147 297t314 107q216 0 320 -126t104 -343v-361q0 -51 22.5 -76.5t55.5 -25.5q31 0 58.5 19t39.5 65l20 -2q-25 -141 -112.5 -214t-212.5 -73 q-105 0 -169 49t-79 136l-6 2q-26 -83 -97 -135t-176 -52q-122 0 -195 78t-73 186zM401 342q0 -77 35 -122.5t92 -45.5q41 0 58 23v368l-29 -6q-156 -31 -156 -217z" />
<glyph unicode="&#xe3;" horiz-adv-x="1181" d="M51 233q0 137 106.5 231.5t293.5 133.5l135 29v35q0 241 -215 241q-100 0 -164.5 -46t-102.5 -159l-14 4q27 190 147 297t314 107q216 0 320 -126t104 -343v-361q0 -51 22.5 -76.5t55.5 -25.5q31 0 58.5 19t39.5 65l20 -2q-25 -141 -112.5 -214t-212.5 -73 q-105 0 -169 49t-79 136l-6 2q-26 -83 -97 -135t-176 -52q-122 0 -195 78t-73 186zM401 342q0 -77 35 -122.5t92 -45.5q41 0 58 23v368l-29 -6q-156 -31 -156 -217z" />
<glyph unicode="&#xe4;" horiz-adv-x="1181" d="M51 233q0 137 106.5 231.5t293.5 133.5l135 29v35q0 241 -215 241q-100 0 -164.5 -46t-102.5 -159l-14 4q27 190 147 297t314 107q216 0 320 -126t104 -343v-361q0 -51 22.5 -76.5t55.5 -25.5q31 0 58.5 19t39.5 65l20 -2q-25 -141 -112.5 -214t-212.5 -73 q-105 0 -169 49t-79 136l-6 2q-26 -83 -97 -135t-176 -52q-122 0 -195 78t-73 186zM401 342q0 -77 35 -122.5t92 -45.5q41 0 58 23v368l-29 -6q-156 -31 -156 -217z" />
<glyph unicode="&#xe5;" horiz-adv-x="1181" d="M51 233q0 137 106.5 231.5t293.5 133.5l135 29v35q0 241 -215 241q-100 0 -164.5 -46t-102.5 -159l-14 4q27 190 147 297t314 107q216 0 320 -126t104 -343v-361q0 -51 22.5 -76.5t55.5 -25.5q31 0 58.5 19t39.5 65l20 -2q-25 -141 -112.5 -214t-212.5 -73 q-105 0 -169 49t-79 136l-6 2q-26 -83 -97 -135t-176 -52q-122 0 -195 78t-73 186zM401 342q0 -77 35 -122.5t92 -45.5q41 0 58 23v368l-29 -6q-156 -31 -156 -217z" />
<glyph unicode="&#xe6;" horiz-adv-x="2197" d="M51 233q0 137 106.5 231.5t293.5 133.5l135 29v35q0 241 -215 241q-100 0 -164.5 -46t-102.5 -159l-14 4q27 190 147 297t314 107q216 0 320 -126t104 -343v-361q0 -51 22.5 -76.5t55.5 -25.5q31 0 58.5 19t39.5 65l20 -2q-25 -141 -112.5 -214t-212.5 -73 q-105 0 -169 49t-79 136l-6 2q-26 -83 -97 -135t-176 -52q-122 0 -195 78t-73 186zM401 342q0 -77 35 -122.5t92 -45.5q41 0 58 23v368l-29 -6q-156 -31 -156 -217zM1233 516q0 170 61.5 304.5t171.5 210t248 75.5q57 0 111 -12t112 -45.5t101 -85.5t70.5 -139t27.5 -199 h-590q23 -171 110.5 -261t225.5 -90q157 0 234 109l16 -4q-20 -113 -67 -196t-109 -128t-126 -65.5t-130 -20.5q-90 0 -173 36t-149 102.5t-105.5 172.5t-39.5 236zM1538 745q0 -39 2 -57h254q0 133 -14.5 211t-41 108.5t-69.5 30.5q-63 0 -97 -77t-34 -216z" />
<glyph unicode="&#xe7;" horiz-adv-x="991" d="M51 518q0 255 153 421.5t394 166.5q214 0 373 -88l-156 -371l-10 2q-9 158 -72 236t-158 78q-119 0 -177 -80t-58 -211q0 -68 21 -135.5t62 -127t111 -96.5t158 -37q177 0 248 125l12 -4q-12 -190 -130.5 -309t-293.5 -119q-213 0 -345 151.5t-132 397.5z" />
<glyph unicode="&#xe8;" horiz-adv-x="1015" d="M51 516q0 170 61.5 304.5t171.5 210t248 75.5q57 0 111 -12t112 -45.5t101 -85.5t70.5 -139t27.5 -199h-589q23 -172 110 -261.5t225 -89.5q157 0 234 109l16 -4q-20 -113 -67 -196t-109 -128t-126 -65.5t-130 -20.5q-90 0 -173 36t-149 102.5t-105.5 172.5t-39.5 236z M356 745q0 -39 2 -57h254q0 133 -14.5 211t-41 108.5t-69.5 30.5q-63 0 -97 -77t-34 -216z" />
<glyph unicode="&#xe9;" horiz-adv-x="1015" d="M51 516q0 170 61.5 304.5t171.5 210t248 75.5q57 0 111 -12t112 -45.5t101 -85.5t70.5 -139t27.5 -199h-589q23 -172 110 -261.5t225 -89.5q157 0 234 109l16 -4q-20 -113 -67 -196t-109 -128t-126 -65.5t-130 -20.5q-90 0 -173 36t-149 102.5t-105.5 172.5t-39.5 236z M356 745q0 -39 2 -57h254q0 133 -14.5 211t-41 108.5t-69.5 30.5q-63 0 -97 -77t-34 -216z" />
<glyph unicode="&#xea;" horiz-adv-x="1015" d="M51 516q0 170 61.5 304.5t171.5 210t248 75.5q57 0 111 -12t112 -45.5t101 -85.5t70.5 -139t27.5 -199h-589q23 -172 110 -261.5t225 -89.5q157 0 234 109l16 -4q-20 -113 -67 -196t-109 -128t-126 -65.5t-130 -20.5q-90 0 -173 36t-149 102.5t-105.5 172.5t-39.5 236z M356 745q0 -39 2 -57h254q0 133 -14.5 211t-41 108.5t-69.5 30.5q-63 0 -97 -77t-34 -216z" />
<glyph unicode="&#xeb;" horiz-adv-x="1015" d="M51 516q0 170 61.5 304.5t171.5 210t248 75.5q57 0 111 -12t112 -45.5t101 -85.5t70.5 -139t27.5 -199h-589q23 -172 110 -261.5t225 -89.5q157 0 234 109l16 -4q-20 -113 -67 -196t-109 -128t-126 -65.5t-130 -20.5q-90 0 -173 36t-149 102.5t-105.5 172.5t-39.5 236z M356 745q0 -39 2 -57h254q0 133 -14.5 211t-41 108.5t-69.5 30.5q-63 0 -97 -77t-34 -216z" />
<glyph unicode="&#xec;" horiz-adv-x="681" d="M51 0v10q101 44 101 154v629q0 73 -22.5 109.5t-78.5 53.5v11l490 139v-942q0 -110 100 -154v-10h-590zM133 1323q0 85 58.5 144t144.5 59t144.5 -59t58.5 -144q0 -84 -58.5 -142.5t-144.5 -58.5t-144.5 58.5t-58.5 142.5z" />
<glyph unicode="&#xed;" horiz-adv-x="681" d="M51 0v10q101 44 101 154v629q0 73 -22.5 109.5t-78.5 53.5v11l490 139v-942q0 -110 100 -154v-10h-590zM133 1323q0 85 58.5 144t144.5 59t144.5 -59t58.5 -144q0 -84 -58.5 -142.5t-144.5 -58.5t-144.5 58.5t-58.5 142.5z" />
<glyph unicode="&#xee;" horiz-adv-x="681" d="M51 0v10q101 44 101 154v629q0 73 -22.5 109.5t-78.5 53.5v11l490 139v-942q0 -110 100 -154v-10h-590zM133 1323q0 85 58.5 144t144.5 59t144.5 -59t58.5 -144q0 -84 -58.5 -142.5t-144.5 -58.5t-144.5 58.5t-58.5 142.5z" />
<glyph unicode="&#xef;" horiz-adv-x="681" d="M51 0v10q101 44 101 154v629q0 73 -22.5 109.5t-78.5 53.5v11l490 139v-942q0 -110 100 -154v-10h-590zM133 1323q0 85 58.5 144t144.5 59t144.5 -59t58.5 -144q0 -84 -58.5 -142.5t-144.5 -58.5t-144.5 58.5t-58.5 142.5z" />
<glyph unicode="&#xf1;" horiz-adv-x="1265" d="M51 0v10q101 44 101 154v629q0 73 -22.5 109.5t-78.5 53.5v11l490 139v-186q34 90 108 138t178 48q140 0 218.5 -77.5t78.5 -219.5v-645q0 -110 101 -154v-10h-549v10q32 15 45.5 46t13.5 87v666q0 125 -94 125q-62 0 -100 -51v-740q0 -56 13.5 -87t45.5 -46v-10h-549z " />
<glyph unicode="&#xf2;" d="M51 539q0 252 157.5 409.5t403.5 157.5t404 -157.5t158 -409.5t-158 -411t-404 -159t-403.5 159t-157.5 411zM461 539q0 -178 16.5 -285.5t49 -155t85.5 -47.5t86 47t49.5 155t16.5 286q0 264 -36 375.5t-116 111.5q-53 0 -85.5 -47t-49 -154.5t-16.5 -285.5z" />
<glyph unicode="&#xf3;" d="M51 539q0 252 157.5 409.5t403.5 157.5t404 -157.5t158 -409.5t-158 -411t-404 -159t-403.5 159t-157.5 411zM461 539q0 -178 16.5 -285.5t49 -155t85.5 -47.5t86 47t49.5 155t16.5 286q0 264 -36 375.5t-116 111.5q-53 0 -85.5 -47t-49 -154.5t-16.5 -285.5z" />
<glyph unicode="&#xf4;" d="M51 539q0 252 157.5 409.5t403.5 157.5t404 -157.5t158 -409.5t-158 -411t-404 -159t-403.5 159t-157.5 411zM461 539q0 -178 16.5 -285.5t49 -155t85.5 -47.5t86 47t49.5 155t16.5 286q0 264 -36 375.5t-116 111.5q-53 0 -85.5 -47t-49 -154.5t-16.5 -285.5z" />
<glyph unicode="&#xf5;" d="M51 539q0 252 157.5 409.5t403.5 157.5t404 -157.5t158 -409.5t-158 -411t-404 -159t-403.5 159t-157.5 411zM461 539q0 -178 16.5 -285.5t49 -155t85.5 -47.5t86 47t49.5 155t16.5 286q0 264 -36 375.5t-116 111.5q-53 0 -85.5 -47t-49 -154.5t-16.5 -285.5z" />
<glyph unicode="&#xf6;" d="M51 539q0 252 157.5 409.5t403.5 157.5t404 -157.5t158 -409.5t-158 -411t-404 -159t-403.5 159t-157.5 411zM461 539q0 -178 16.5 -285.5t49 -155t85.5 -47.5t86 47t49.5 155t16.5 286q0 264 -36 375.5t-116 111.5q-53 0 -85.5 -47t-49 -154.5t-16.5 -285.5z" />
<glyph unicode="&#xf8;" d="M51 539q0 252 157.5 409.5t403.5 157.5t404 -157.5t158 -409.5t-158 -411t-404 -159t-403.5 159t-157.5 411zM461 539q0 -178 16.5 -285.5t49 -155t85.5 -47.5t86 47t49.5 155t16.5 286q0 264 -36 375.5t-116 111.5q-53 0 -85.5 -47t-49 -154.5t-16.5 -285.5z" />
<glyph unicode="&#xf9;" d="M31 1016v10l489 80v-815q0 -117 96 -117q54 0 78 43v633q0 77 -15.5 116t-53.5 56v10l458 74v-942q0 -71 24.5 -101t76.5 -53v-10h-490v184q-30 -94 -102.5 -154.5t-175.5 -60.5q-133 0 -209 78t-76 248v553q0 76 -22 113.5t-78 54.5z" />
<glyph unicode="&#xfa;" d="M31 1016v10l489 80v-815q0 -117 96 -117q54 0 78 43v633q0 77 -15.5 116t-53.5 56v10l458 74v-942q0 -71 24.5 -101t76.5 -53v-10h-490v184q-30 -94 -102.5 -154.5t-175.5 -60.5q-133 0 -209 78t-76 248v553q0 76 -22 113.5t-78 54.5z" />
<glyph unicode="&#xfb;" d="M31 1016v10l489 80v-815q0 -117 96 -117q54 0 78 43v633q0 77 -15.5 116t-53.5 56v10l458 74v-942q0 -71 24.5 -101t76.5 -53v-10h-490v184q-30 -94 -102.5 -154.5t-175.5 -60.5q-133 0 -209 78t-76 248v553q0 76 -22 113.5t-78 54.5z" />
<glyph unicode="&#xfc;" d="M31 1016v10l489 80v-815q0 -117 96 -117q54 0 78 43v633q0 77 -15.5 116t-53.5 56v10l458 74v-942q0 -71 24.5 -101t76.5 -53v-10h-490v184q-30 -94 -102.5 -154.5t-175.5 -60.5q-133 0 -209 78t-76 248v553q0 76 -22 113.5t-78 54.5z" />
<glyph unicode="&#xfd;" horiz-adv-x="1136" d="M-61 -371l114 314h10q44 -43 118.5 -68t131.5 -25q187 0 250 93l8 12l-421 950q-61 134 -136 160v10h623v-10q-86 -29 -86 -92q0 -48 18 -96l164 -426l160 401q22 56 22 100q0 92 -96 113v10h307v-10q-48 -17 -78.5 -58t-64.5 -126l-371 -955q-79 -205 -182 -285.5 t-250 -80.5q-54 0 -120.5 16.5t-120.5 52.5z" />
<glyph unicode="&#xfe;" horiz-adv-x="1230" d="M31 -399q100 44 100 153v1039q0 73 -22 109.5t-78 53.5v11l489 139v-170q37 83 113.5 126.5t165.5 43.5q166 0 268 -141t102 -371q0 -279 -142.5 -452t-373.5 -173q-76 0 -133 33v-248q0 -123 142 -153v-11h-631v11zM520 57q25 -22 62 -22q76 0 122 119t46 313 q0 217 -47 342t-132 125q-32 0 -51 -25v-852z" />
<glyph unicode="&#xff;" horiz-adv-x="1136" d="M-61 -371l114 314h10q44 -43 118.5 -68t131.5 -25q187 0 250 93l8 12l-421 950q-61 134 -136 160v10h623v-10q-86 -29 -86 -92q0 -48 18 -96l164 -426l160 401q22 56 22 100q0 92 -96 113v10h307v-10q-48 -17 -78.5 -58t-64.5 -126l-371 -955q-79 -205 -182 -285.5 t-250 -80.5q-54 0 -120.5 16.5t-120.5 52.5z" />
<glyph unicode="&#x152;" horiz-adv-x="2875" d="M51 717q0 341 211 549.5t557 208.5t557 -208.5t211 -549.5t-211 -549.5t-557 -208.5t-557 208.5t-211 549.5zM532 717q0 -350 69 -511t218 -161t218 161t69 511t-69 511t-218 161t-218 -161t-69 -511zM1659 0v10q44 18 70.5 40t43.5 67t17 114v979q0 68 -16.5 110.5 t-42 62.5t-72.5 40v11h1079l33 -512h-10q-57 199 -189.5 324.5t-300.5 125.5h-51v-606h21q129 0 210.5 68.5t114.5 169.5h10v-562h-10q-15 51 -41.5 95.5t-66 82.5t-95.5 60t-122 22h-21v-641h51q191 0 317.5 126t215.5 386h10l-55 -573h-1100z" />
<glyph unicode="&#x153;" horiz-adv-x="2260" d="M51 539q0 252 157.5 409.5t403.5 157.5t404 -157.5t158 -409.5t-158 -411t-404 -159t-403.5 159t-157.5 411zM461 539q0 -178 16.5 -285.5t49 -155t85.5 -47.5t86 47t49.5 155t16.5 286q0 264 -36 375.5t-116 111.5q-53 0 -85.5 -47t-49 -154.5t-16.5 -285.5zM1296 516 q0 170 62 305t172 210t248 75q57 0 111 -12t112 -45.5t101 -85.5t70.5 -139t27.5 -199h-590q23 -171 110.5 -261t225.5 -90q156 0 233 109l16 -4q-20 -113 -67 -196t-109 -128t-126 -65.5t-130 -20.5q-90 0 -173 36t-149 102.5t-105.5 172.5t-39.5 236zM1602 745 q0 -39 2 -57h254q0 133 -14.5 211t-41 108.5t-69.5 30.5q-63 0 -97 -77t-34 -216z" />
<glyph unicode="&#x178;" horiz-adv-x="1425" d="M10 1423v11h756v-11q-58 -12 -90.5 -51t-32.5 -98q0 -65 39 -133l209 -367l207 367q39 68 39 133q0 59 -31.5 98t-89.5 51v11h399v-11q-37 -7 -103.5 -76t-121.5 -169l-264 -488v-459q0 -100 44 -151t148 -70v-10h-815v10q104 19 148.5 70t44.5 151v453l-285 541 q-99 186 -201 198z" />
<glyph unicode="&#x2000;" horiz-adv-x="763" />
<glyph unicode="&#x2001;" horiz-adv-x="1526" />
<glyph unicode="&#x2002;" horiz-adv-x="763" />
<glyph unicode="&#x2003;" horiz-adv-x="1526" />
<glyph unicode="&#x2004;" horiz-adv-x="508" />
<glyph unicode="&#x2005;" horiz-adv-x="381" />
<glyph unicode="&#x2006;" horiz-adv-x="254" />
<glyph unicode="&#x2007;" horiz-adv-x="254" />
<glyph unicode="&#x2008;" horiz-adv-x="190" />
<glyph unicode="&#x2009;" horiz-adv-x="305" />
<glyph unicode="&#x200a;" horiz-adv-x="84" />
<glyph unicode="&#x2010;" horiz-adv-x="710" d="M61 561v129h588v-129h-588z" />
<glyph unicode="&#x2011;" horiz-adv-x="710" d="M61 561v129h588v-129h-588z" />
<glyph unicode="&#x2012;" horiz-adv-x="710" d="M61 561v129h588v-129h-588z" />
<glyph unicode="&#x2013;" horiz-adv-x="1146" d="M61 561v129h1024v-129h-1024z" />
<glyph unicode="&#x2014;" horiz-adv-x="2170" d="M61 561v129h2048v-129h-2048z" />
<glyph unicode="&#x202f;" horiz-adv-x="305" />
<glyph unicode="&#x205f;" horiz-adv-x="381" />
<glyph unicode="&#x25fc;" horiz-adv-x="1075" d="M0 0v1075h1075v-1075h-1075z" />
</font>
</defs>
</svg>
