<?xml version="1.0" encoding="utf-8"?>
<!-- Generator: Adobe Illustrator 25.2.1, SVG Export Plug-In . SVG Version: 6.00 Build 0)  -->
<svg version="1.1" id="Capa_1" xmlns="http://www.w3.org/2000/svg" xmlns:xlink="http://www.w3.org/1999/xlink" x="0px" y="0px"
	 viewBox="0 0 930 159" style="enable-background:new 0 0 930 159;" xml:space="preserve">
<style type="text/css">
	.st0{fill:#FFFFFF;}
</style>
<g>
	<g>
		<path class="st0" d="M636.5,61.8c-0.5-9.6-0.8-16.3-1.1-22.9c0-1-0.1-2,0-3c0.2-3.1,2.5-5.7,5.3-6.1c2.9-0.5,6,1.1,7,4
			c0.7,2,1,4.2,1.2,6.3c2,17.4,1.5,34.8,0.3,52.2c-0.7,9.8-1.2,19.5-2.1,29.3c-0.4,4.3-2.6,6.8-6,7.3c-3.8,0.6-6.6-1.1-8.3-4.3
			c-3.8-7-7.3-14.2-10.9-21.3c-1.2-2.3-2.3-4.6-3.7-6.8c-0.4-0.7-1.4-1-2.1-1.4c-0.4,0.7-1.1,1.3-1.2,2c-0.3,2.5-0.7,4.9-0.7,7.4
			c0,5.3,0.4,10.6,0.4,15.9c0,2.1-0.4,4.4-1.4,6.1c-2.4,4.1-7.9,4.1-10.2,0.1c-1.2-2.1-1.8-4.8-1.9-7.3c-0.6-15.4-1-30.9-1.6-46.3
			c-0.3-8.5-0.7-17.1-0.9-25.6c-0.1-2.2,0.2-4.5,0.5-6.7c0.6-3.8,3.2-6.4,6.3-6.7c3-0.3,6,1.8,7.3,5.4c2,5.6,3.7,11.4,5.8,17
			c3.7,9.9,7.6,19.7,11.5,29.4c0.6,1.4,2.2,2.4,3.4,3.6c0.7-1.5,1.9-3,2-4.5C635.9,76.2,636.2,67.5,636.5,61.8z"/>
		<path class="st0" d="M97.7,77.6c0-13.2,0-26.4,0-39.6c0-7.9,3.5-11.4,11.4-11c12.7,0.7,24.4,7.6,27.9,20.6c1.9,7,1,14-2.1,20.6
			c-1,2.2-2.2,4.3-3.4,6.4c-1.7,2.8-1.5,5.3,0.5,7.8c3.3,4.1,5.9,8.6,6.7,14c2.7,18-10.2,33.6-27.9,33.8c-8,0.1-12.6-4-12.7-12
			c-0.2-13.5,0-27.1,0-40.6C97.8,77.6,97.7,77.6,97.7,77.6z M111.1,102.6c0.1,0,0.1,0,0.2,0c0.1,2.1,0.3,4.3,0.3,6.4
			c0.1,2.2,0.4,4.3,2.6,5.3c2.4,1,4.4-0.1,6.1-1.7c4.6-4.6,6-10,4-16.2c-1.3-3.7-4.1-6-8-6.6c-2.6-0.4-4.3,0.8-4.5,3.4
			C111.3,96.3,111.3,99.4,111.1,102.6z M123.8,56.1c0-6.6-2.8-11.2-7.1-12.6c-2.9-0.9-5.3,0.3-5.4,3.3c-0.2,6.1,0,12.2,0.2,18.4
			c0.1,1.7,0.6,3.9,2.7,4c1.5,0.1,3.4-0.7,4.6-1.8C122.2,64,123.6,59.7,123.8,56.1z"/>
		<path class="st0" d="M303.6,78.9c0-13.4,0-26.9,0-40.3c0-1.8,0.3-3.7,0.8-5.4c1.1-3.7,3.8-5.8,6.8-5.4c3.1,0.3,5.8,3.2,6,7
			c0.2,3.2,0,6.5,0.1,9.7c0,3.1,0,6.2,0.3,9.2c0.1,1.3,1.2,2.5,1.8,3.8c1.1-0.9,2.6-1.6,3.2-2.8c3-6.3,5.7-12.7,8.5-19.1
			c0.9-2,1.5-4.1,2.6-5.9c1.6-2.7,4.6-3.8,7.3-3c2.7,0.8,5,3.5,4.6,6.6c-0.5,3.4-1.4,6.8-2.7,10c-4.8,11.4-9.8,22.7-15,33.9
			c-1.9,4.2-1.7,7.8,1,11.6c6.7,9.4,12.5,19.2,17.1,29.8c0.8,1.9,1.1,4.5,0.5,6.4c-1.3,4.6-6.6,5.7-9.9,2.3c-1-1-1.9-2.3-2.6-3.6
			c-3.3-5.6-6.5-11.2-9.8-16.8c-0.1-0.2-0.2-0.5-0.4-0.6c-1.3-0.9-2.6-1.7-3.9-2.6c-0.6,1.4-1.6,2.7-1.8,4.1
			c-0.4,4-0.4,8.1-0.6,12.2c-0.3,5.1-2.8,8.1-6.6,8.1c-3.8,0-6.6-3.2-6.6-8.2c-0.1-13.7,0-27.4,0-41.1
			C303.9,78.9,303.8,78.9,303.6,78.9z"/>
		<path class="st0" d="M241,117.7c-0.3,1.8-0.5,3.6-0.9,5.4c-0.6,2.6-2.8,4.5-5.2,4.8c-2.7,0.3-5.3-0.8-6.3-3.5
			c-1-2.8-1.5-5.7-1.9-8.7c-0.6-4-1-8.1-1.6-12.1c-0.5-3.7-2.6-5.7-6.4-5.7c-3,0-6,0.4-8.9,1c-2.8,0.6-4.6,2.5-5.3,5.4
			c-1.1,4.9-2.2,9.9-3.4,14.8c-0.4,1.6-0.8,3.2-1.6,4.6c-1.7,2.9-4.3,4-7.1,3.3c-2.7-0.7-4.8-3.2-4.7-6.3c0.1-3.4,0.6-6.8,1.2-10.1
			c4.6-24.9,12.6-48.8,22.5-72c0.5-1.1,1.1-2.2,1.8-3.2c4.1-5.8,11-5.2,13.7,1.4c1.6,3.8,2.6,7.9,3.5,11.9
			c5.2,22.1,6.9,44.7,10.1,67.1c0.1,0.7,0.1,1.3,0.1,2C240.8,117.7,240.9,117.7,241,117.7z M221.7,76.9c-0.6-2.8-1.1-5.7-2-8.4
			c-0.3-0.9-1.4-2.1-2.3-2.2c-0.7-0.1-2,1-2.3,1.8c-1.4,3.5-2.8,7.1-3.8,10.7c-0.6,2.4,1.2,4.4,3.6,4.7
			C219.2,84,221.6,81.5,221.7,76.9z"/>
		<path class="st0" d="M765.1,78.4c-0.5,14.2-1.9,26.8-8.8,38.1c-1,1.6-2,3.1-3.2,4.4c-7.5,8.7-16.2,9.7-25.5,2.8
			c-6.5-4.8-9.9-11.6-11.8-19.3c-3.4-14.2-4.6-28.5-1.4-42.9c2.2-9.9,5.7-18.9,13.8-25.6c7.3-6,14.1-5.7,21.2,0.6
			c8.6,7.6,13,17.3,14.4,28.5C764.4,69.9,764.7,74.9,765.1,78.4z M726.2,78c-0.2,9.1,0.8,16.3,2.9,23.3c1,3.1,2.4,6.2,4.3,8.9
			c3,4.2,7.2,4.1,10.3-0.1c1.3-1.8,2.4-3.8,3.1-5.9c4.3-12.2,5.4-24.8,3.3-37.5c-1-6.4-2.8-12.5-7.6-17.2c-2.8-2.8-5.6-3.1-8.2-0.2
			c-1.9,2-3.5,4.5-4.5,7C727,63.8,726.1,71.7,726.2,78z"/>
		<path class="st0" d="M819.4,55.4c-0.6,2.4-0.8,5.1-2,7.3c-2.3,4.2-8.2,4.2-10.3-0.1c-1.3-2.5-1.6-5.5-2.3-8.3
			c-0.6-2.2-0.9-4.4-1.8-6.5c-1.7-4-5-4.7-8.5-2.2c-7.5,5.4-9.2,16.3-3.4,23.7c2.7,3.5,6.1,6.5,9.3,9.7c3.8,3.9,8.1,7.5,11.4,11.8
			c5.8,7.4,7.8,16.1,6.4,25.4c-1.3,8.5-9,15-18,15.6c-11,0.7-19.5-4.7-23.1-15.1c-1.5-4.3-3-8.7-2.3-13.4c0.2-1.5,0.8-3.1,1.6-4.4
			c1.3-2.1,3.4-2.9,5.8-2.5c2.4,0.3,4,1.7,4.7,4c0.8,2.6,1.3,5.3,2.1,7.9c0.6,2,1.4,4.1,2.5,5.9c2,3.1,6.1,4.2,9.3,3
			c2.8-1.1,4.4-4.3,3.9-8.1c-0.7-5.1-2.8-9.6-6.5-13.2c-3.5-3.4-7.3-6.6-10.9-9.9c-5.6-5.3-10.5-11.1-12.6-18.8
			c-3.8-14.2,3.9-30.4,17.3-36.4c8.5-3.8,18.1-0.4,22.5,8.1c2.6,5.1,4.8,10.5,4.2,16.5C818.9,55.3,819.1,55.4,819.4,55.4z"/>
		<path class="st0" d="M259.7,83.2c1,7.1,1.8,14.3,3,21.4c0.4,2.4,1.6,4.8,2.9,6.8c2.7,4.3,7.5,4.3,9.7-0.2
			c1.7-3.4,2.3-7.4,3.1-11.1c0.6-2.7,0.8-5.6,1.4-8.3c0.9-3.6,3.5-5.6,6.5-5.4c3.2,0.2,6.1,2.6,6,6.2c-0.1,9.7-0.3,19.5-6.3,27.9
			c-8.8,12.2-25.3,11.4-32.5-1.8c-5.3-9.7-7.5-20.3-7.1-31.2c0.4-10.3,1.2-20.6,2.7-30.7c0.8-5.6,3.2-11,5.5-16.2
			c2.6-5.6,7.1-9.6,13.1-11.5c6.3-2,13.2,0.3,17.1,6.1c5.4,7.9,7.9,16.8,7,26.4c-0.3,3.5-3.2,6.4-6.4,6.6c-3,0.2-5.5-1.9-6.3-5.6
			c-0.8-3.5-1-7.1-1.8-10.5c-0.5-2.1-1.4-4.3-2.6-6.1c-1.9-2.9-5.2-3-7-0.1c-2.1,3.5-3.7,7.4-4.8,11.3c-2.4,8.4-3.1,17.1-2.7,25.9
			C260.2,83.2,260,83.2,259.7,83.2z"/>
		<path class="st0" d="M547.9,40.1c-1,4.6-2.2,10.4-3.5,16.1c-4.9,21.8-10.5,43.4-18,64.4c-0.5,1.5-1.3,3.1-2.3,4.4
			c-3.2,4.5-8.5,4.5-11.6,0c-1.4-2-2.2-4.4-3-6.8c-7.3-22.2-11.8-45.1-16.5-67.9c-0.7-3.2-1.5-6.5-2.2-9.7c-0.2-1.1-0.3-2.3-0.3-3.5
			c0.2-3.6,2.5-6.2,5.6-6.6c3.1-0.4,5.9,1.4,6.8,4.9c2.6,10.3,4.9,20.7,7.4,31c1.8,7.4,3.6,14.8,5.7,22.2c0.4,1.4,1.7,2.4,2.5,3.7
			c1-1.2,2.5-2.3,2.9-3.7c2.6-8.8,5.1-17.7,7.4-26.6c2.1-8.1,3.8-16.3,5.7-24.5c0.1-0.2,0.1-0.5,0.2-0.7c1.2-4.7,3.9-6.8,7.6-6.3
			C545.8,31.1,548,34.5,547.9,40.1z"/>
		<path class="st0" d="M451.5,78.3c0-13-0.1-25.9,0-38.9c0-8.7,3.3-12.7,11.9-14.2c3.8-0.7,7.8-1.1,11.7-1.3
			c1.8-0.1,3.8,0.4,5.5,1.1c2.6,1.1,3.9,3.8,3.6,6.5c-0.3,2.7-2.1,4.4-4.6,5c-2.6,0.6-5.2,0.9-7.9,1.3c-4.1,0.6-6.3,2.5-6.4,6.6
			c-0.1,6.6,0,13.3,0.3,19.9c0.2,4.4,1.5,5.4,5.9,5.9c1.2,0.1,2.3,0.2,3.5,0.5c2.6,0.7,4.5,2.2,5,5c0.5,2.8-0.6,5-3,6.3
			c-1.7,1-3.6,1.6-5.5,2.2c-3.8,1.2-5.6,3-5.6,7c0,6,0.1,12.1,0.6,18.1c0.3,3.4,2,4.6,5.4,5.1c1.9,0.3,3.8,0.5,5.6,1
			c2.7,0.7,4.6,2.4,5,5.3c0.4,2.9-1.1,4.9-3.5,6.4c-3.6,2.2-18.1,2.4-21.7,0.2c-2.9-1.7-4-4.3-4.2-7.5c-0.3-5.2-0.7-10.4-0.7-15.7
			c-0.1-8.7,0-17.4,0-26.1C452,78.3,451.7,78.3,451.5,78.3z"/>
		<path class="st0" d="M556.7,77.7c0.4-12.6,0.8-25.8,1.3-39c0.2-5.7,2.4-8.5,7.8-10.1c5.1-1.5,10.2-2.4,15.5-2
			c4.8,0.4,7.9,3.7,7.3,7.7c-0.4,2.9-2.2,4.6-5,5.2c-2.2,0.5-4.4,0.6-6.6,1.1c-3.2,0.7-5.2,2.4-5.4,5.7c-0.4,6.1-0.7,12.3-0.6,18.4
			c0,3.6,1.8,5.1,5.4,5.6c1.7,0.2,3.5,0.4,5.2,0.8c2.6,0.7,4.5,2.3,4.9,5.1c0.4,2.9-1,5.1-3.4,6.3c-2,1-4.3,1.6-6.6,2.2
			c-4.2,1.2-5.7,2.6-5.8,7c-0.1,6,0,12,0.2,17.9c0.2,4.1,1.9,5.6,6.1,6.1c2.1,0.2,4.2,0.3,6.2,0.7c3.4,0.7,5.5,3.2,5.5,6.2
			c0,2.8-2.3,6.1-5.4,6.3c-5.6,0.5-11.3,0.8-16.9,0.3c-5-0.4-7.5-3.6-8.3-8.6c-0.2-1.2-0.3-2.5-0.3-3.7
			C557.4,104,557.1,91.1,556.7,77.7z"/>
		<path class="st0" d="M381.4,78.3c0.4-13.2,0.8-26.3,1.3-39.4c0.2-5.9,2.4-9,8.2-10.3c5-1.1,10.1-1.8,15.2-1.9
			c5.3-0.1,8.3,4.1,7.1,8.5c-0.7,2.5-2.4,3.7-4.8,4.2c-2.1,0.4-4.3,0.7-6.4,1c-3.1,0.5-5.3,2.3-5.5,5.5c-0.4,6.4-0.7,12.8-0.6,19.1
			c0,3.2,1.9,4.6,5.1,5c1.6,0.2,3.3,0.4,4.9,0.7c3.1,0.7,5.1,2.8,5.4,5.4c0.3,2.5-1.1,5-3.9,6.4c-1.9,0.9-4.1,1.4-6.2,2
			c-4.1,1.1-5.6,2.5-5.7,6.7c-0.1,6.1-0.1,12.3,0.2,18.4c0.2,3.9,1.9,5.3,5.8,5.8c2.1,0.2,4.3,0.3,6.4,0.7c3.3,0.7,5.3,3,5.4,5.9
			c0.1,2.9-2.2,6.2-5.4,6.6c-5.3,0.6-10.7,1-15.9,0.5c-6.4-0.6-9.3-4.4-9.5-11C382.1,105,381.8,91.6,381.4,78.3z"/>
		<path class="st0" d="M680.3,90.8c-0.6-13-1.2-26-1.9-39c-0.3-4.4-2.2-6-6.6-6c-1.7,0-3.5,0.1-5.2,0.1c-4.3-0.1-7.5-2.7-7.7-6
			c-0.1-3.4,2.9-6.7,7-7.1c7.9-0.8,15.9-1.4,23.9-2.1c2.8-0.2,5.6-0.5,8.5-0.5c2.1,0,4.3,0.3,6.4,0.9c2.7,0.7,4.1,2.8,4.3,5.5
			c0.2,2.8-1.2,4.9-3.7,5.9c-2,0.8-4.1,1.1-6.2,1.6c-5.2,1.1-6.6,2.8-6.5,8c0.2,8,0.4,16.1,0.6,24.1c0.3,14.5,0.6,29,0.6,43.6
			c0,2.2-0.6,4.7-1.8,6.5c-2.7,4.3-8.2,3.9-10.4-0.7c-1-2-1.4-4.5-1.4-6.7c-0.2-9.4-0.1-18.8-0.1-28.1
			C680.1,90.8,680.2,90.8,680.3,90.8z"/>
		<path class="st0" d="M162.8,73.3c0.3,11.5,0.6,23.1,1,34.6c0,1.2,0.2,2.3,0.4,3.5c0.6,3.2,2.2,4.7,5.4,5.3c2,0.4,4.1,0.7,6.1,1.1
			c3.7,0.8,6.3,4,6,7.2c-0.3,3.3-3.2,5.8-7.3,5.7c-4.3-0.1-8.7-0.3-12.9-0.9c-6.8-0.9-10.2-4.6-10.6-11.4
			c-1.1-18.2-2.3-36.5-1.4-54.7c0.3-7.1,0.4-14.3,0.7-21.4c0.1-2.1,0.4-4.3,1-6.3c1.1-3.5,4.3-5.3,7.5-4.8c3,0.5,5,3.1,5,6.8
			c0,11.8,0,23.6,0,35.4C163.5,73.3,163.2,73.3,162.8,73.3z"/>
		<path class="st0" d="M369.6,78.7c0,13.9,0,27.7,0,41.6c0,1.4-0.3,3-0.9,4.3c-1.9,3.9-6.6,4.7-9.8,1.7c-2.3-2.2-2.9-4.9-2.9-8
			c0.1-25.4,0.1-50.8,0.2-76.2c0-2.6,0.3-5.1,0.6-7.7c0.2-1.4,0.7-2.8,1.4-3.9c2.8-4.4,8.4-4.2,10.5,0.6c1,2.3,1.3,5,1.3,7.5
			c0.1,13.4,0.1,26.7,0.1,40.1C369.9,78.7,369.7,78.7,369.6,78.7z"/>
	</g>
	<polygon class="st0" points="42.9,89 36.1,86.6 34.4,93.7 31.2,87.1 25,90.9 27.4,84.1 20.3,82.4 26.9,79.2 23.1,73 29.9,75.4 
		31.6,68.3 34.8,74.9 41,71.1 38.6,77.9 45.7,79.6 39.1,82.8 	"/>
	<polygon class="st0" points="893.9,89 887.1,86.6 885.4,93.7 882.2,87.1 876,90.9 878.4,84.1 871.3,82.4 877.9,79.2 874.1,73 
		880.9,75.4 882.6,68.3 885.8,74.9 892,71.1 889.6,77.9 896.7,79.6 890.1,82.8 	"/>
</g>
</svg>
