<svg enable-background="new 0 0 930 159" viewBox="0 0 930 159" xmlns="http://www.w3.org/2000/svg"><g fill="#fff"><path d="m636.5 61.8c-.5-9.6-.8-16.3-1.1-22.9 0-1-.1-2 0-3 .2-3.1 2.5-5.7 5.3-6.1 2.9-.5 6 1.1 7 4 .7 2 1 4.2 1.2 6.3 2 17.4 1.5 34.8.3 52.2-.7 9.8-1.2 19.5-2.1 29.3-.4 4.3-2.6 6.8-6 7.3-3.8.6-6.6-1.1-8.3-4.3-3.8-7-7.3-14.2-10.9-21.3-1.2-2.3-2.3-4.6-3.7-6.8-.4-.7-1.4-1-2.1-1.4-.4.7-1.1 1.3-1.2 2-.3 2.5-.7 4.9-.7 7.4 0 5.3.4 10.6.4 15.9 0 2.1-.4 4.4-1.4 6.1-2.4 4.1-7.9 4.1-10.2.1-1.2-2.1-1.8-4.8-1.9-7.3-.6-15.4-1-30.9-1.6-46.3-.3-8.5-.7-17.1-.9-25.6-.1-2.2.2-4.5.5-6.7.6-3.8 3.2-6.4 6.3-6.7 3-.3 6 1.8 7.3 5.4 2 5.6 3.7 11.4 5.8 17 3.7 9.9 7.6 19.7 11.5 29.4.6 1.4 2.2 2.4 3.4 3.6.7-1.5 1.9-3 2-4.5.5-8.7.8-17.4 1.1-23.1z"/><path d="m97.7 77.6c0-13.2 0-26.4 0-39.6 0-7.9 3.5-11.4 11.4-11 12.7.7 24.4 7.6 27.9 20.6 1.9 7 1 14-2.1 20.6-1 2.2-2.2 4.3-3.4 6.4-1.7 2.8-1.5 5.3.5 7.8 3.3 4.1 5.9 8.6 6.7 14 2.7 18-10.2 33.6-27.9 33.8-8 .1-12.6-4-12.7-12-.2-13.5 0-27.1 0-40.6-.3 0-.4 0-.4 0zm13.4 25h.2c.1 2.1.3 4.3.3 6.4.1 2.2.4 4.3 2.6 5.3 2.4 1 4.4-.1 6.1-1.7 4.6-4.6 6-10 4-16.2-1.3-3.7-4.1-6-8-6.6-2.6-.4-4.3.8-4.5 3.4-.5 3.1-.5 6.2-.7 9.4zm12.7-46.5c0-6.6-2.8-11.2-7.1-12.6-2.9-.9-5.3.3-5.4 3.3-.2 6.1 0 12.2.2 18.4.1 1.7.6 3.9 2.7 4 1.5.1 3.4-.7 4.6-1.8 3.4-3.4 4.8-7.7 5-11.3z"/><path d="m303.6 78.9c0-13.4 0-26.9 0-40.3 0-1.8.3-3.7.8-5.4 1.1-3.7 3.8-5.8 6.8-5.4 3.1.3 5.8 3.2 6 7 .2 3.2 0 6.5.1 9.7 0 3.1 0 6.2.3 9.2.1 1.3 1.2 2.5 1.8 3.8 1.1-.9 2.6-1.6 3.2-2.8 3-6.3 5.7-12.7 8.5-19.1.9-2 1.5-4.1 2.6-5.9 1.6-2.7 4.6-3.8 7.3-3s5 3.5 4.6 6.6c-.5 3.4-1.4 6.8-2.7 10-4.8 11.4-9.8 22.7-15 33.9-1.9 4.2-1.7 7.8 1 11.6 6.7 9.4 12.5 19.2 17.1 29.8.8 1.9 1.1 4.5.5 6.4-1.3 4.6-6.6 5.7-9.9 2.3-1-1-1.9-2.3-2.6-3.6-3.3-5.6-6.5-11.2-9.8-16.8-.1-.2-.2-.5-.4-.6-1.3-.9-2.6-1.7-3.9-2.6-.6 1.4-1.6 2.7-1.8 4.1-.4 4-.4 8.1-.6 12.2-.3 5.1-2.8 8.1-6.6 8.1s-6.6-3.2-6.6-8.2c-.1-13.7 0-27.4 0-41.1-.4.1-.5.1-.7.1z"/><path d="m241 117.7c-.3 1.8-.5 3.6-.9 5.4-.6 2.6-2.8 4.5-5.2 4.8-2.7.3-5.3-.8-6.3-3.5-1-2.8-1.5-5.7-1.9-8.7-.6-4-1-8.1-1.6-12.1-.5-3.7-2.6-5.7-6.4-5.7-3 0-6 .4-8.9 1-2.8.6-4.6 2.5-5.3 5.4-1.1 4.9-2.2 9.9-3.4 14.8-.4 1.6-.8 3.2-1.6 4.6-1.7 2.9-4.3 4-7.1 3.3-2.7-.7-4.8-3.2-4.7-6.3.1-3.4.6-6.8 1.2-10.1 4.6-24.9 12.6-48.8 22.5-72 .5-1.1 1.1-2.2 1.8-3.2 4.1-5.8 11-5.2 13.7 1.4 1.6 3.8 2.6 7.9 3.5 11.9 5.2 22.1 6.9 44.7 10.1 67.1.1.7.1 1.3.1 2 .2-.1.3-.1.4-.1zm-19.3-40.8c-.6-2.8-1.1-5.7-2-8.4-.3-.9-1.4-2.1-2.3-2.2-.7-.1-2 1-2.3 1.8-1.4 3.5-2.8 7.1-3.8 10.7-.6 2.4 1.2 4.4 3.6 4.7 4.3.5 6.7-2 6.8-6.6z"/><path d="m765.1 78.4c-.5 14.2-1.9 26.8-8.8 38.1-1 1.6-2 3.1-3.2 4.4-7.5 8.7-16.2 9.7-25.5 2.8-6.5-4.8-9.9-11.6-11.8-19.3-3.4-14.2-4.6-28.5-1.4-42.9 2.2-9.9 5.7-18.9 13.8-25.6 7.3-6 14.1-5.7 21.2.6 8.6 7.6 13 17.3 14.4 28.5.6 4.9.9 9.9 1.3 13.4zm-38.9-.4c-.2 9.1.8 16.3 2.9 23.3 1 3.1 2.4 6.2 4.3 8.9 3 4.2 7.2 4.1 10.3-.1 1.3-1.8 2.4-3.8 3.1-5.9 4.3-12.2 5.4-24.8 3.3-37.5-1-6.4-2.8-12.5-7.6-17.2-2.8-2.8-5.6-3.1-8.2-.2-1.9 2-3.5 4.5-4.5 7-2.8 7.5-3.7 15.4-3.6 21.7z"/><path d="m819.4 55.4c-.6 2.4-.8 5.1-2 7.3-2.3 4.2-8.2 4.2-10.3-.1-1.3-2.5-1.6-5.5-2.3-8.3-.6-2.2-.9-4.4-1.8-6.5-1.7-4-5-4.7-8.5-2.2-7.5 5.4-9.2 16.3-3.4 23.7 2.7 3.5 6.1 6.5 9.3 9.7 3.8 3.9 8.1 7.5 11.4 11.8 5.8 7.4 7.8 16.1 6.4 25.4-1.3 8.5-9 15-18 15.6-11 .7-19.5-4.7-23.1-15.1-1.5-4.3-3-8.7-2.3-13.4.2-1.5.8-3.1 1.6-4.4 1.3-2.1 3.4-2.9 5.8-2.5 2.4.3 4 1.7 4.7 4 .8 2.6 1.3 5.3 2.1 7.9.6 2 1.4 4.1 2.5 5.9 2 3.1 6.1 4.2 9.3 3 2.8-1.1 4.4-4.3 3.9-8.1-.7-5.1-2.8-9.6-6.5-13.2-3.5-3.4-7.3-6.6-10.9-9.9-5.6-5.3-10.5-11.1-12.6-18.8-3.8-14.2 3.9-30.4 17.3-36.4 8.5-3.8 18.1-.4 22.5 8.1 2.6 5.1 4.8 10.5 4.2 16.5.2-.1.4 0 .7 0z"/><path d="m259.7 83.2c1 7.1 1.8 14.3 3 21.4.4 2.4 1.6 4.8 2.9 6.8 2.7 4.3 7.5 4.3 9.7-.2 1.7-3.4 2.3-7.4 3.1-11.1.6-2.7.8-5.6 1.4-8.3.9-3.6 3.5-5.6 6.5-5.4 3.2.2 6.1 2.6 6 6.2-.1 9.7-.3 19.5-6.3 27.9-8.8 12.2-25.3 11.4-32.5-1.8-5.3-9.7-7.5-20.3-7.1-31.2.4-10.3 1.2-20.6 2.7-30.7.8-5.6 3.2-11 5.5-16.2 2.6-5.6 7.1-9.6 13.1-11.5 6.3-2 13.2.3 17.1 6.1 5.4 7.9 7.9 16.8 7 26.4-.3 3.5-3.2 6.4-6.4 6.6-3 .2-5.5-1.9-6.3-5.6-.8-3.5-1-7.1-1.8-10.5-.5-2.1-1.4-4.3-2.6-6.1-1.9-2.9-5.2-3-7-.1-2.1 3.5-3.7 7.4-4.8 11.3-2.4 8.4-3.1 17.1-2.7 25.9 0 .1-.2.1-.5.1z"/><path d="m547.9 40.1c-1 4.6-2.2 10.4-3.5 16.1-4.9 21.8-10.5 43.4-18 64.4-.5 1.5-1.3 3.1-2.3 4.4-3.2 4.5-8.5 4.5-11.6 0-1.4-2-2.2-4.4-3-6.8-7.3-22.2-11.8-45.1-16.5-67.9-.7-3.2-1.5-6.5-2.2-9.7-.2-1.1-.3-2.3-.3-3.5.2-3.6 2.5-6.2 5.6-6.6s5.9 1.4 6.8 4.9c2.6 10.3 4.9 20.7 7.4 31 1.8 7.4 3.6 14.8 5.7 22.2.4 1.4 1.7 2.4 2.5 3.7 1-1.2 2.5-2.3 2.9-3.7 2.6-8.8 5.1-17.7 7.4-26.6 2.1-8.1 3.8-16.3 5.7-24.5.1-.2.1-.5.2-.7 1.2-4.7 3.9-6.8 7.6-6.3 3.5.6 5.7 4 5.6 9.6z"/><path d="m451.5 78.3c0-13-.1-25.9 0-38.9 0-8.7 3.3-12.7 11.9-14.2 3.8-.7 7.8-1.1 11.7-1.3 1.8-.1 3.8.4 5.5 1.1 2.6 1.1 3.9 3.8 3.6 6.5s-2.1 4.4-4.6 5c-2.6.6-5.2.9-7.9 1.3-4.1.6-6.3 2.5-6.4 6.6-.1 6.6 0 13.3.3 19.9.2 4.4 1.5 5.4 5.9 5.9 1.2.1 2.3.2 3.5.5 2.6.7 4.5 2.2 5 5s-.6 5-3 6.3c-1.7 1-3.6 1.6-5.5 2.2-3.8 1.2-5.6 3-5.6 7 0 6 .1 12.1.6 18.1.3 3.4 2 4.6 5.4 5.1 1.9.3 3.8.5 5.6 1 2.7.7 4.6 2.4 5 5.3s-1.1 4.9-3.5 6.4c-3.6 2.2-18.1 2.4-21.7.2-2.9-1.7-4-4.3-4.2-7.5-.3-5.2-.7-10.4-.7-15.7-.1-8.7 0-17.4 0-26.1-.4.3-.7.3-.9.3z"/><path d="m556.7 77.7c.4-12.6.8-25.8 1.3-39 .2-5.7 2.4-8.5 7.8-10.1 5.1-1.5 10.2-2.4 15.5-2 4.8.4 7.9 3.7 7.3 7.7-.4 2.9-2.2 4.6-5 5.2-2.2.5-4.4.6-6.6 1.1-3.2.7-5.2 2.4-5.4 5.7-.4 6.1-.7 12.3-.6 18.4 0 3.6 1.8 5.1 5.4 5.6 1.7.2 3.5.4 5.2.8 2.6.7 4.5 2.3 4.9 5.1.4 2.9-1 5.1-3.4 6.3-2 1-4.3 1.6-6.6 2.2-4.2 1.2-5.7 2.6-5.8 7-.1 6 0 12 .2 17.9.2 4.1 1.9 5.6 6.1 6.1 2.1.2 4.2.3 6.2.7 3.4.7 5.5 3.2 5.5 6.2 0 2.8-2.3 6.1-5.4 6.3-5.6.5-11.3.8-16.9.3-5-.4-7.5-3.6-8.3-8.6-.2-1.2-.3-2.5-.3-3.7-.4-12.9-.7-25.8-1.1-39.2z"/><path d="m381.4 78.3c.4-13.2.8-26.3 1.3-39.4.2-5.9 2.4-9 8.2-10.3 5-1.1 10.1-1.8 15.2-1.9 5.3-.1 8.3 4.1 7.1 8.5-.7 2.5-2.4 3.7-4.8 4.2-2.1.4-4.3.7-6.4 1-3.1.5-5.3 2.3-5.5 5.5-.4 6.4-.7 12.8-.6 19.1 0 3.2 1.9 4.6 5.1 5 1.6.2 3.3.4 4.9.7 3.1.7 5.1 2.8 5.4 5.4.3 2.5-1.1 5-3.9 6.4-1.9.9-4.1 1.4-6.2 2-4.1 1.1-5.6 2.5-5.7 6.7-.1 6.1-.1 12.3.2 18.4.2 3.9 1.9 5.3 5.8 5.8 2.1.2 4.3.3 6.4.7 3.3.7 5.3 3 5.4 5.9s-2.2 6.2-5.4 6.6c-5.3.6-10.7 1-15.9.5-6.4-.6-9.3-4.4-9.5-11-.4-13.1-.7-26.5-1.1-39.8z"/><path d="m680.3 90.8c-.6-13-1.2-26-1.9-39-.3-4.4-2.2-6-6.6-6-1.7 0-3.5.1-5.2.1-4.3-.1-7.5-2.7-7.7-6-.1-3.4 2.9-6.7 7-7.1 7.9-.8 15.9-1.4 23.9-2.1 2.8-.2 5.6-.5 8.5-.5 2.1 0 4.3.3 6.4.9 2.7.7 4.1 2.8 4.3 5.5.2 2.8-1.2 4.9-3.7 5.9-2 .8-4.1 1.1-6.2 1.6-5.2 1.1-6.6 2.8-6.5 8 .2 8 .4 16.1.6 24.1.3 14.5.6 29 .6 43.6 0 2.2-.6 4.7-1.8 6.5-2.7 4.3-8.2 3.9-10.4-.7-1-2-1.4-4.5-1.4-6.7-.2-9.4-.1-18.8-.1-28.1z"/><path d="m162.8 73.3c.3 11.5.6 23.1 1 34.6 0 1.2.2 2.3.4 3.5.6 3.2 2.2 4.7 5.4 5.3 2 .4 4.1.7 6.1 1.1 3.7.8 6.3 4 6 7.2-.3 3.3-3.2 5.8-7.3 5.7-4.3-.1-8.7-.3-12.9-.9-6.8-.9-10.2-4.6-10.6-11.4-1.1-18.2-2.3-36.5-1.4-54.7.3-7.1.4-14.3.7-21.4.1-2.1.4-4.3 1-6.3 1.1-3.5 4.3-5.3 7.5-4.8 3 .5 5 3.1 5 6.8v35.4c-.2-.1-.5-.1-.9-.1z"/><path d="m369.6 78.7v41.6c0 1.4-.3 3-.9 4.3-1.9 3.9-6.6 4.7-9.8 1.7-2.3-2.2-2.9-4.9-2.9-8 .1-25.4.1-50.8.2-76.2 0-2.6.3-5.1.6-7.7.2-1.4.7-2.8 1.4-3.9 2.8-4.4 8.4-4.2 10.5.6 1 2.3 1.3 5 1.3 7.5.1 13.4.1 26.7.1 40.1-.2 0-.4 0-.5 0z"/><path d="m42.9 89-6.8-2.4-1.7 7.1-3.2-6.6-6.2 3.8 2.4-6.8-7.1-1.7 6.6-3.2-3.8-6.2 6.8 2.4 1.7-7.1 3.2 6.6 6.2-3.8-2.4 6.8 7.1 1.7-6.6 3.2z"/><path d="m893.9 89-6.8-2.4-1.7 7.1-3.2-6.6-6.2 3.8 2.4-6.8-7.1-1.7 6.6-3.2-3.8-6.2 6.8 2.4 1.7-7.1 3.2 6.6 6.2-3.8-2.4 6.8 7.1 1.7-6.6 3.2z"/></g></svg>